<svg width="224" height="301" fill="none" xmlns="http://www.w3.org/2000/svg"><path d="M.649 186.673c0-5.395 2.208-9.564 6.623-12.514 4.412-2.95 10.748-4.425 19.007-4.425 8.26 0 14.678.685 19.268 2.049v12.409c-5.12-1.655-11.17-2.481-18.144-2.481-6.974 0-10.464 2.156-10.464 6.473v2.911c0 2.156.486 3.831 1.458 5.018.968 1.189 2.868 2.392 5.694 3.615l15.23 7.014c7.152 3.166 10.724 7.984 10.724 14.457v6.365c0 5.468-2.429 9.692-7.28 12.678-4.859 2.986-11.79 4.477-20.796 4.477s-15.761-.789-20.262-2.376v-12.514c5.648 1.944 12.053 2.911 19.205 2.911 8.742 0 13.11-2.229 13.11-6.69v-2.805c0-1.872-.462-3.327-1.39-4.373-.926-1.042-2.628-2.104-5.1-3.182l-14.565-6.474C4.754 205.549.649 200.259.649 193.356v-6.69.007zm61.254-3.773c5.034-1.363 11.7-2.048 19.999-2.048s14.35 1.491 18.148 4.477c3.794 2.986 5.694 7.463 5.694 13.431v45.425h-15.1v-4.53c-3.44 3.235-8.276 4.854-14.503 4.854-6.226 0-10.794-1.258-13.706-3.776-2.915-2.517-4.369-6.365-4.369-11.543v-3.671c0-4.386 1.28-7.84 3.84-10.357 2.562-2.518 6.71-4.425 12.45-5.72l16.023-3.559v-7.231c-.09-2.229-.882-3.844-2.383-4.854-1.503-1.006-4.947-1.511-10.328-1.511a55.44 55.44 0 00-15.761 2.265V182.9h-.004zm11.786 43.16v3.13c0 3.667 2.34 5.503 7.02 5.503 3.622 0 6.798-.79 9.538-2.373v-15.752l-9.403 2.156c-2.915.649-4.835 1.475-5.76 2.481-.929 1.01-1.392 2.626-1.392 4.858l-.003-.003zm86.971-41.491c-3.09-2.343-7.149-3.514-12.182-3.514-5.034 0-10.239 1.053-15.626 3.137v-3.254c-6.068.219-11.102.871-15.094 1.966v81.904l16.022-3.677v-16.949h11.521c6.092 0 10.947-1.35 14.566-4.051 3.619-2.701 5.43-6.67 5.43-11.93v-33.33c0-4.527-1.544-7.962-4.634-10.302h-.003zm-11.521 41.806c0 3.89-2.605 5.837-7.813 5.837h-7.549V195.09c3.001-1.37 6.091-2.065 9.27-2.065 4.062 0 6.092 1.567 6.092 4.645v28.705zm28.006-43.475c5.034-1.363 11.7-2.048 19.999-2.048s14.35 1.491 18.147 4.477c3.795 2.986 5.695 7.463 5.695 13.431v45.425h-15.101v-4.53c-3.44 3.235-8.275 4.854-14.502 4.854-6.226 0-10.794-1.258-13.706-3.776-2.915-2.517-4.369-6.365-4.369-11.543v-3.671c0-4.386 1.279-7.84 3.841-10.357 2.561-2.518 6.709-4.425 12.45-5.72l16.022-3.559v-7.231c-.089-2.229-.882-3.844-2.383-4.854-1.504-1.006-4.947-1.511-10.328-1.511a55.44 55.44 0 00-15.761 2.265V182.9h-.004zm11.786 43.16v3.13c0 3.667 2.34 5.503 7.02 5.503 3.622 0 6.798-.79 9.538-2.373v-15.752l-9.403 2.156c-2.915.649-4.835 1.475-5.76 2.481-.929 1.01-1.392 2.626-1.392 4.858l-.003-.003zM.649 271.562h7.16c2.37 0 4.157.495 5.358 1.481 1.201.988 1.803 2.3 1.803 3.938v13.221c0 1.637-.602 2.95-1.803 3.937-1.201.988-2.988 1.481-5.359 1.481H.65v-24.058zm12.068 5.419c0-2.528-1.636-3.792-4.909-3.792H2.902v20.807H7.81c3.274 0 4.91-1.264 4.91-3.792v-13.221l-.003-.002zm33.055-1.159h-1.486c-.9 0-1.667.229-2.298.687 1.02.89 1.531 2.084 1.531 3.575v2.818c0 1.613-.602 2.877-1.8 3.792-1.201.914-3.002 1.372-5.404 1.372-1.952 0-2.928.736-2.928 2.203 0 .65.248 1.127.745 1.427.494.301 1.328.451 2.5.451h2.656c4.022 0 6.034 1.372 6.034 4.117v.362c0 2.913-2.612 4.371-7.837 4.371h-1.847c-2.852 0-5.09-.338-6.71-1.012v-1.805c1.832.795 4.07 1.191 6.71 1.191h1.8c3.753 0 5.629-.904 5.629-2.709v-.398c0-.842-.248-1.47-.745-1.878-.494-.409-1.492-.615-2.994-.615h-2.703c-1.682 0-2.988-.265-3.917-.795-.931-.531-1.397-1.288-1.397-2.276v-.579c0-.601.21-1.103.63-1.498.42-.398.96-.668 1.622-.814-2.972-.625-4.458-2.262-4.458-4.912v-2.817c0-1.613.6-2.877 1.802-3.792 1.201-.915 2.906-1.372 5.112-1.372s3.94.349 5.2 1.047c.54-1.324 1.832-1.986 3.873-1.986h.675v1.842l.005.003zm-4.503 7.08v-2.818c0-1.18-.39-2.064-1.17-2.654-.782-.59-2.043-.884-3.784-.884-1.74 0-3.001.297-3.783.884-.782.59-1.17 1.476-1.17 2.654v2.818c0 1.18.39 2.064 1.17 2.654.78.59 2.04.883 3.783.883 1.743 0 3.002-.293 3.784-.883.78-.59 1.17-1.477 1.17-2.654zm20.038-11.369v3.757h6.17v1.624h-6.17v14.52c0 .964.285 1.651.856 2.06.57.409 1.47.614 2.703.614 1.232 0 2.266-.119 3.106-.362v1.661c-.9.217-2.124.325-3.67.325-1.546 0-2.808-.367-3.784-1.102-.976-.734-1.464-1.801-1.464-3.198v-14.52h-2.927v-1.624h2.972l.63-3.757h1.576l.002.002zm15.807 3.571c4.924 0 7.386 1.637 7.386 4.912v15.605h-2.206v-1.445a13 13 0 01-1.486.831c-1.052.506-2.476.758-4.278.758-4.203 0-6.306-1.613-6.306-4.842v-1.155c0-2.385 1.803-3.987 5.403-4.804l6.665-1.519v-3.431c0-1.083-.368-1.885-1.103-2.402-.735-.517-2.132-.778-4.189-.778s-3.926.241-5.606.723v-1.806c1.68-.433 3.587-.649 5.72-.649v.002zm-4.684 14.739v1.12c0 1.107.323 1.92.97 2.437.645.52 1.733.778 3.264.778 2.19 0 4.068-.554 5.628-1.662v-7.369l-5.945 1.337c-1.47.36-2.49.795-3.061 1.299-.57.506-.856 1.193-.856 2.06zm18.6-19.976h2.252v25.755h-2.253v-25.755zm17.68 1.695h12.023v1.627h-9.771v9.862h9.368v1.626h-9.368v10.945h-2.252v-24.06zm50.893 3.542c4.925 0 7.385 1.637 7.385 4.912v15.605h-2.208v-1.445c-.571.36-1.066.639-1.487.831-1.051.506-2.477.758-4.278.758-4.204 0-6.306-1.613-6.306-4.842v-1.155c0-2.385 1.801-3.987 5.404-4.804l6.664-1.519v-3.431c0-1.083-.367-1.885-1.103-2.402-.735-.517-2.132-.778-4.189-.778-2.056 0-3.926.241-5.606.723v-1.806c1.68-.433 3.588-.649 5.72-.649l.004.002zm-4.683 14.739v1.12c0 1.107.323 1.92.967 2.437.644.52 1.733.778 3.264.778 2.19 0 4.067-.554 5.629-1.662v-7.369l-5.945 1.337c-1.471.36-2.491.795-3.062 1.299-.57.506-.855 1.193-.855 2.06h.002zm-7.255-9.828v15.605h-2.257v-15.605c0-2.099-1.286-3.147-3.873-3.147-1.615 0-3.371.365-5.261 1.087v17.667h-2.257v-19.867c.7-.188 1.435-.319 2.21-.423v.891c2.097-.674 3.987-1.012 5.649-1.012s3.05.422 4.147 1.264c1.096.844 1.644 2.024 1.644 3.54h-.002zm39.06 0v15.605h-2.257v-15.605c0-2.099-1.286-3.147-3.873-3.147-1.615 0-3.371.365-5.26 1.087v17.667h-2.258v-19.867c.7-.188 1.435-.319 2.211-.423v.891c2.096-.674 3.986-1.012 5.648-1.012 1.662 0 3.051.422 4.147 1.264 1.096.844 1.644 2.024 1.644 3.54h-.002zm6.076-.029c0-3.25 2.418-4.877 7.251-4.877 1.74 0 3.257.157 4.547.469v1.662c-1.352-.312-2.934-.469-4.75-.469-1.816 0-3.071.265-3.761.796-.691.53-1.036 1.336-1.036 2.419v10.983c0 1.082.343 1.884 1.036 2.402.69.519 1.958.777 3.805.777 1.848 0 3.445-.181 4.795-.541v1.697a21.057 21.057 0 01-4.639.506c-4.833 0-7.25-1.613-7.25-4.841v-10.983h.002zm16.616 10.614v-10.114c0-1.662.579-3.003 1.733-4.028 1.157-1.023 2.919-1.536 5.292-1.536 2.373 0 4.136.513 5.292 1.536 1.154 1.023 1.734 2.366 1.734 4.028v6.033H211.67v4.081c0 2.336 1.996 3.505 5.989 3.505 1.622 0 3.287-.206 4.998-.615v1.77c-1.531.363-3.198.542-4.998.542-5.495 0-8.242-1.735-8.242-5.202zm2.253-5.708h9.547v-4.406c0-2.625-1.591-3.938-4.775-3.938s-4.772 1.313-4.772 3.938v4.406zm-84.406-9.556v20.29h-2.249v-19.868a16.57 16.57 0 012.249-.422zm0-3.774h-2.249v1.627h2.249v-1.627zm-74.741 3.774v20.29h-2.248v-19.868a16.568 16.568 0 012.248-.422zm0-3.774h-2.248v1.627h2.248v-1.627zm-29 3.774v20.29h-2.248v-19.868a16.564 16.564 0 012.248-.422zm0-3.774h-2.248v1.627h2.248v-1.627zM126.799 56.484h59.532v26.66c0 37.237-30.486 67.471-68.034 67.471H34.464v-2.561c0-50.54 41.372-91.57 92.335-91.57z" fill="#fff"/><path d="M102.499 0h83.826v2.56c0 50.542-41.372 91.57-92.335 91.57H34.464V67.472C34.464 30.234 64.951 0 102.5 0z" fill="#E6E6E5"/></svg>