<svg width="22" height="22" fill="none" xmlns="http://www.w3.org/2000/svg"><g clip-path="url(#clip0_4027_14902)"><path d="M16.077 16.04a.81.81 0 001.083.058l.062-.056 4.49-4.469.003-.002a.81.81 0 000-1.141l-.003-.003-4.49-4.469a.81.81 0 00-1.083-.054l-.062.056a.81.81 0 00-.054 1.084l.056.06 3.016 3.001.086.085H.859a.81.81 0 000 1.62h18.322l-.086.085-3.016 3a.81.81 0 00-.058 1.084l.056.061z" fill="#fff" stroke="#fff" stroke-width=".1"/></g><defs><clipPath id="clip0_4027_14902"><path fill="#fff" transform="matrix(1 0 0 -1 0 22)" d="M0 0h22v22H0z"/></clipPath></defs></svg>