<svg width="24" height="24" fill="none" xmlns="http://www.w3.org/2000/svg"><g clip-path="url(#clip0_4030_12738)"><g clip-path="url(#clip1_4030_12738)" fill="#fff"><path d="M5.346 16.48l-.291-1.8h-1.65c-.131 0-.267.004-.399 0-.28-.015-.482-.212-.478-.474 0-.263.202-.46.488-.464.619-.005 1.233 0 1.851-.005.061 0 .122-.01.174-.01l.23-1.786H.677c-.108 0-.22-.004-.324-.028a.459.459 0 01-.351-.487.455.455 0 01.403-.417c.084-.01.173-.01.258-.01 1.556 0 3.108-.004 4.664.005.173 0 .253-.042.323-.211.197-.473.422-.938.643-1.402.023-.056.051-.107.093-.197H3.743c-.338 0-.554-.192-.554-.473.005-.277.225-.464.563-.464 1.031 0 2.062.005 3.094-.005.098 0 .23-.051.29-.126 1.36-1.65 3.066-2.752 5.147-3.263.052-.014.104-.033.17-.056 0-.356.008-.703-.01-1.055-.005-.066-.113-.15-.188-.183A1.596 1.596 0 0111.83.846c.3-.249.651-.361 1.04-.366 1.102-.005 2.204-.005 3.305 0 .825.005 1.458.54 1.603 1.331.136.755-.276 1.463-1.03 1.763-.109.042-.156.089-.156.216.01.332.005.67.005.984.544.183 1.083.323 1.584.544 3.273 1.462 5.209 3.966 5.729 7.514.333 2.255-.183 4.355-1.378 6.296-.122.197-.282.319-.52.281-.207-.033-.357-.164-.371-.366a.774.774 0 01.117-.436 8.994 8.994 0 001.14-2.878c.932-4.49-2.007-9.024-6.498-9.999-4.397-.951-8.714 1.566-10.022 5.846-1.472 4.819 1.533 9.844 6.502 10.828 2.189.436 4.251.061 6.164-1.106l.122-.07c.267-.155.53-.103.675.131.14.23.075.502-.183.666a9.171 9.171 0 01-3.305 1.322c-4.528.839-8.799-1.482-10.59-5.748-.065-.15-.15-.187-.3-.182-.97.004-1.935.004-2.906.004-.103 0-.206 0-.304-.018a.453.453 0 01-.375-.446.45.45 0 01.36-.454c.1-.02.202-.02.305-.02.924-.004 1.852-.004 2.804-.004zm9.183-13.75h1.566c.107 0 .22-.005.323-.037a.644.644 0 00.44-.69c-.051-.351-.314-.576-.707-.576a376.096 376.096 0 00-3.253 0c-.432 0-.722.277-.718.666.005.389.29.642.732.642.543 0 1.082-.005 1.617-.005zm-1.13 1.89h2.236v-.93H13.4v.928z"/><path d="M14.529 6.79a7.27 7.27 0 017.27 7.265c0 4.008-3.262 7.275-7.266 7.275-4.003 0-7.27-3.267-7.27-7.275a7.26 7.26 0 017.266-7.266zm0 .937a6.33 6.33 0 00-6.333 6.333c0 3.483 2.836 6.323 6.319 6.333 3.487.01 6.342-2.836 6.342-6.329a6.328 6.328 0 00-6.328-6.337zM.47 16.485c.253.004.46.21.46.459a.462.462 0 01-.474.469.462.462 0 01-.46-.483.47.47 0 01.474-.445zm19.96 3.927a.46.46 0 01.46-.455c.263 0 .478.216.474.473a.47.47 0 01-.47.455.459.459 0 01-.463-.473z"/><path d="M13.066 13.984c.024-.103.042-.267.103-.417.047-.127.019-.197-.07-.282-.29-.281-.577-.572-.863-.857-.23-.235-.248-.502-.056-.704.197-.206.488-.187.722.043.29.285.577.571.858.862.089.094.16.113.281.061.314-.122.647-.127.961-.005.146.056.22.014.319-.084.694-.699 1.388-1.392 2.086-2.086a.825.825 0 01.305-.202c.197-.065.37.005.492.178a.43.43 0 01-.01.544c-.075.099-.168.183-.257.272-.652.652-1.299 1.303-1.955 1.95-.108.108-.131.188-.08.342.192.591.056 1.12-.403 1.533-.46.413-.998.502-1.566.249-.562-.258-.839-.722-.867-1.397zm1.472-.44a.512.512 0 00-.525.51c0 .286.24.52.52.52.272 0 .502-.23.511-.501a.515.515 0 00-.506-.53zm.459-4.29c0 .084.005.174 0 .258a.454.454 0 01-.44.431.45.45 0 01-.483-.384 2.368 2.368 0 01.004-.605c.033-.239.249-.389.488-.375.239.014.412.192.431.44.005.08 0 .155 0 .235zm4.322 4.342c.08 0 .155-.005.234 0a.466.466 0 01.038.928 2.667 2.667 0 01-.511.005.454.454 0 01-.436-.483c.005-.258.192-.436.469-.45.07-.005.14 0 .206 0zm-5.264 5.247c0-.07-.005-.14 0-.21.014-.268.206-.46.46-.465a.467.467 0 01.473.45 3.67 3.67 0 010 .445c-.014.282-.22.479-.474.479-.258-.005-.45-.207-.46-.488v-.21zm-4.317-5.261c.094.005.187 0 .281.014.225.028.38.202.394.422.014.234-.117.445-.352.478a2.522 2.522 0 01-.623.01.446.446 0 01-.39-.479.461.461 0 01.437-.436c.084-.009.168 0 .257 0-.004-.004-.004-.009-.004-.009z"/></g></g><defs><clipPath id="clip0_4030_12738"><path fill="#fff" d="M0 0h24v24H0z"/></clipPath><clipPath id="clip1_4030_12738"><path fill="#fff" transform="translate(-.003 .48)" d="M0 0h24.006v23.04H0z"/></clipPath></defs></svg>