<svg width="24" height="24" fill="none" xmlns="http://www.w3.org/2000/svg"><g clip-path="url(#clip0_4027_14122)"><g clip-path="url(#clip1_4027_14122)" fill="#fff"><path d="M7.462 10.052c1.554 2.756 3.681 4.894 6.442 6.423.08-.08.146-.136.202-.193.568-.548 1.113-1.125 1.705-1.645.864-.76 2.09-.764 2.925.028a81.79 81.79 0 013.245 3.258c.77.816.76 2.054.056 2.921-.15.188-.32.366-.483.54-.48.492-.958.984-1.447 1.471-.915.92-2.033 1.229-3.3 1.121-1.602-.14-3.072-.698-4.495-1.402a23.45 23.45 0 01-6.832-5.077c-2.029-2.18-3.71-4.595-4.766-7.399C.319 9.062.033 8.008 0 6.891c-.028-1.115.254-2.119 1.052-2.934.638-.647 1.254-1.323 1.934-1.913 1.057-.915 2.207-.905 3.226.047A65.722 65.722 0 019.33 5.236c.775.83.761 2.059.005 2.907-.516.586-1.085 1.12-1.634 1.679-.061.07-.131.131-.24.23zm9.72 12.588c.822.005 1.46-.23 1.981-.769.526-.544 1.066-1.083 1.592-1.627.573-.59.573-1.078 0-1.664-.436-.446-.883-.886-1.329-1.327-.493-.492-.981-.99-1.479-1.472-.441-.432-.91-.436-1.371-.028-.07.06-.136.126-.202.192-.535.534-1.07 1.073-1.61 1.603-.39.38-.818.455-1.287.216a14.884 14.884 0 01-.972-.52c-1.418-.844-2.649-1.909-3.762-3.118-.981-1.07-1.878-2.194-2.484-3.53-.319-.709-.253-1.056.3-1.59a57.511 57.511 0 001.696-1.688c.385-.408.371-.834.024-1.266a3.174 3.174 0 00-.207-.225c-.883-.886-1.766-1.772-2.653-2.653-.573-.568-1.075-.572-1.644-.015-.55.549-1.103 1.074-1.615 1.632-.249.272-.479.59-.61.928-.287.722-.202 1.477-.047 2.218.234 1.14.662 2.208 1.178 3.244 1.118 2.237 2.606 4.21 4.372 5.969 2.235 2.222 4.808 3.933 7.78 5.016a7.808 7.808 0 002.349.474zM13.34 0c.287.056.634.113.973.202 2.06.52 3.897 1.472 5.484 2.883a13.027 13.027 0 013.306 4.524c.418.957.714 1.946.887 2.973a.65.65 0 01-.511.773.663.663 0 01-.803-.469c-.155-.548-.254-1.11-.428-1.655-.568-1.814-1.554-3.38-2.911-4.716a11.269 11.269 0 00-4.283-2.668c-.61-.206-1.249-.333-1.878-.497-.385-.098-.61-.403-.563-.773.042-.314.333-.572.727-.577zm-.925 5.036a.676.676 0 01.827-.666c2.812.568 4.799 2.167 5.93 4.801.207.483.315 1.008.446 1.524.108.422-.108.778-.493.877-.37.094-.718-.14-.84-.558-.15-.506-.254-1.036-.474-1.514-.944-2.054-2.546-3.31-4.767-3.775-.413-.089-.629-.328-.629-.689z"/></g></g><defs><clipPath id="clip0_4027_14122"><path fill="#fff" d="M0 0h24v24H0z"/></clipPath><clipPath id="clip1_4027_14122"><path fill="#fff" d="M0 0h24v24H0z"/></clipPath></defs></svg>