<svg width="24" height="24" fill="none" xmlns="http://www.w3.org/2000/svg"><g clip-path="url(#clip0_4030_8832)"><g clip-path="url(#clip1_4030_8832)"><path d="M11.99 20.448H2.213c-.732 0-1.344-.259-1.794-.848-.308-.402-.432-.867-.432-1.37V9.446c0-1.231-.004-2.466 0-3.698.004-.9.402-1.569 1.205-1.985.304-.15.63-.21.965-.21 6.561 0 13.123-.004 19.689 0 1.25 0 2.166.927 2.17 2.177.003 4.178.003 8.36 0 12.537 0 1.044-.628 1.855-1.63 2.114a2.57 2.57 0 01-.634.06c-3.255.008-6.506.008-9.76.008zM2.43 4.978c.049.057.071.091.101.117 2.643 2.628 5.282 5.263 7.936 7.883.221.218.503.41.788.518.863.327 1.64.12 2.286-.521 2.643-2.62 5.278-5.248 7.917-7.872.034-.034.056-.072.098-.12-6.378-.004-12.737-.004-19.126-.004zm13.097 7.99c-.353.36-.66.686-.98 1.001-1.441 1.423-3.52 1.457-5.007.08-.312-.29-.605-.598-.909-.898-.049-.049-.097-.09-.173-.161-1.993 2.027-3.971 4.046-5.916 6.028h18.923c-1.951-1.986-3.926-4.001-5.938-6.05zM1.457 5.995c-.014.008-.026.019-.04.026v11.96c.014.011.033.019.048.03C3.447 15.992 5.43 13.977 7.366 12 5.422 10.02 3.44 8.009 1.458 5.996zm15.117 6.055c1.975 1.963 3.98 3.957 6.01 5.972V6.015l-.045-.023a8577.884 8577.884 0 01-5.965 6.06z" fill="#fff"/></g></g><defs><clipPath id="clip0_4030_8832"><path fill="#fff" d="M0 0h24v24H0z"/></clipPath><clipPath id="clip1_4030_8832"><path fill="#fff" transform="translate(-.014 3.55)" d="M0 0h24.028v16.896H0z"/></clipPath></defs></svg>