<svg width="24" height="24" fill="none" xmlns="http://www.w3.org/2000/svg"><g clip-path="url(#clip0_4030_11621)" fill="#fff"><path d="M4.065 8.442C4.061 4.3 7.111.725 11.178.097a8.456 8.456 0 019.601 6.71c.323 1.626.122 3.214-.384 4.774-.604 1.87-1.509 3.6-2.587 5.225-1.293 1.95-2.652 3.856-3.978 5.782-.248.361-.487.726-.745 1.078-.309.426-.867.436-1.166.005-1.594-2.301-3.21-4.592-4.761-6.921-1.068-1.607-1.954-3.318-2.554-5.164-.346-1.068-.539-2.174-.539-3.144zm8.425 13.589c.047-.052.066-.07.085-.099 1.284-1.85 2.596-3.687 3.851-5.562 1.078-1.612 2.006-3.308 2.615-5.159.454-1.387.651-2.792.337-4.24C18.315 2.116 12.771-.17 8.634 2.585c-2.287 1.528-3.317 3.74-3.125 6.494.093 1.294.524 2.498 1.05 3.67.8 1.78 1.831 3.42 2.937 5.022.984 1.42 1.982 2.821 2.994 4.26z"/><path d="M8.282 8.437a4.223 4.223 0 014.213-4.222 4.223 4.223 0 014.221 4.212 4.223 4.223 0 01-4.212 4.222 4.22 4.22 0 01-4.222-4.212zM12.5 5.62a2.823 2.823 0 00-2.811 2.797 2.819 2.819 0 002.811 2.82 2.823 2.823 0 002.812-2.797A2.822 2.822 0 0012.5 5.62z"/></g><defs><clipPath id="clip0_4030_11621"><path fill="#fff" transform="translate(4.065)" d="M0 0h16.868v24H0z"/></clipPath></defs></svg>