<svg width="150" height="150" fill="none" xmlns="http://www.w3.org/2000/svg"><g clip-path="url(#clip0_4027_15313)"><path d="M74.993 149.986c41.417 0 74.993-33.576 74.993-74.993C149.986 33.576 116.41 0 74.993 0 33.576 0 0 33.575 0 74.993c0 41.417 33.575 74.993 74.993 74.993z" fill="#fff"/><path d="M15.397 111.992a.481.481 0 01-.424-.24.513.513 0 01.156-.693l8.879-5.543a.491.491 0 01.693.156c.141.24.07.551-.156.693l-8.88 5.542a.496.496 0 01-.268.085zM4.807 76.828a.513.513 0 01-.509-.495c0-.282.212-.509.495-.523l10.463-.283h.014c.269 0 .495.212.509.495a.516.516 0 01-.495.523l-10.463.283h-.014zm17.858-30.581a.465.465 0 01-.24-.057l-9.163-5.062a.493.493 0 01-.198-.678.5.5 0 01.693-.198l9.162 5.061c.24.128.34.439.198.68a.51.51 0 01-.452.254zM44.41 23.866a.504.504 0 01-.438-.254l-5.33-9.007a.496.496 0 01.183-.693.508.508 0 01.693.184l5.33 9.007a.504.504 0 01-.438.763zm30.088-8.272a.507.507 0 01-.509-.509l-.028-10.463c0-.282.226-.509.509-.509.282 0 .509.226.509.51l.028 10.462a.507.507 0 01-.509.51zm30.13 8.129a.507.507 0 01-.438-.764l5.288-9.035a.508.508 0 01.876.509l-5.288 9.035a.503.503 0 01-.438.255zm21.845 22.283a.5.5 0 01-.439-.254.501.501 0 01.198-.693l9.134-5.104a.498.498 0 01.693.198.5.5 0 01-.198.693l-9.134 5.104c-.085.028-.169.056-.254.056zm17.999 30.497l-10.477-.226c-.283 0-.495-.24-.495-.524 0-.282.226-.537.523-.494l10.463.226c.283 0 .495.24.495.523a.496.496 0 01-.509.495zm-10.421 35.194a.573.573 0 01-.268-.071l-8.908-5.5a.488.488 0 01-.155-.693.49.49 0 01.692-.155l8.908 5.5c.24.141.311.452.17.693a.509.509 0 01-.439.226zm-122.259-6.506c-.07 0-.156-.043-.184-.114-.056-.098-.014-.226.099-.282l5.26-2.715c.099-.057.226-.014.283.085.056.099.014.226-.1.283l-5.26 2.714a.2.2 0 01-.098.029zm-2.87-6.844a.222.222 0 01-.198-.127c-.043-.114.014-.227.127-.27l5.514-2.106c.113-.056.226.014.269.127a.205.205 0 01-.127.269l-5.515 2.107h-.07zm-2.149-7.112c-.1 0-.184-.056-.198-.155a.21.21 0 01.155-.255l5.698-1.47a.2.2 0 01.255.155.21.21 0 01-.156.255l-5.712 1.47h-.042zm-1.372-7.309a.213.213 0 01-.212-.183c-.014-.114.057-.227.184-.24l5.825-.835c.113.014.226.07.24.184a.22.22 0 01-.183.24l-5.826.834h-.028zm5.472-14.322h-.014l-5.868-.48c-.113 0-.198-.114-.198-.227.014-.113.085-.184.226-.198l5.868.48c.113 0 .198.114.198.227s-.1.198-.212.198zm.905-6.704h-.043l-5.782-1.13c-.114-.029-.184-.128-.17-.255.014-.113.113-.184.24-.17l5.783 1.132c.113.028.184.127.17.254a.198.198 0 01-.198.17zm1.597-6.587h-.07l-5.628-1.767c-.113-.028-.17-.155-.14-.268.027-.114.155-.17.268-.142l5.627 1.767c.113.029.17.156.141.27-.014.084-.099.14-.198.14zm2.291-6.363c-.028 0-.057 0-.085-.014l-5.401-2.39c-.113-.042-.155-.17-.113-.282.042-.1.184-.142.283-.1l5.4 2.39c.114.043.156.17.114.283-.028.07-.113.113-.198.113zm6.546-11.822a.228.228 0 01-.127-.042l-4.765-3.535c-.099-.07-.113-.198-.042-.297a.22.22 0 01.297-.042l4.765 3.535c.099.07.113.198.042.297a.22.22 0 01-.17.084zm4.171-5.328a.181.181 0 01-.141-.056l-4.355-4.058a.219.219 0 01-.014-.297c.085-.071.212-.085.297-.014l4.355 4.057a.219.219 0 01.014.297.227.227 0 01-.156.071zm4.723-4.849a.227.227 0 01-.156-.07l-3.902-4.525c-.07-.085-.07-.226.014-.297.099-.057.226-.057.297.028l3.902 4.525c.07.085.07.226-.014.297a.272.272 0 01-.141.042zm5.203-4.326a.201.201 0 01-.17-.084l-3.393-4.949c-.07-.099-.043-.226.056-.297a.238.238 0 01.297.057l3.394 4.948c.07.1.042.226-.057.297a.41.41 0 01-.127.028zm11.622-6.888c-.085 0-.17-.043-.198-.127l-2.262-5.614a.218.218 0 01.113-.282c.099-.057.226 0 .269.113l2.262 5.613a.218.218 0 01-.113.283c-.015.014-.043.014-.071.014zm6.306-2.474c-.099 0-.184-.057-.198-.156l-1.654-5.853c-.029-.113.028-.226.141-.255.113-.028.226.029.255.142l1.654 5.853c.028.113-.028.226-.142.255-.014.014-.042.014-.056.014zm6.518-1.795c-.099 0-.198-.07-.212-.17l-1.018-6.022c-.014-.114.056-.227.17-.24.127 0 .226.056.24.169l1.018 6.023c.014.113-.057.226-.17.24h-.028zm6.688-1.088c-.113 0-.198-.084-.212-.197l-.368-6.136c0-.114.085-.213.198-.227h.014c.113 0 .198.085.212.198l.368 6.137c0 .127-.085.226-.212.226zm13.517-.029h-.029a.2.2 0 01-.17-.24l.934-6.137c.028-.113.127-.17.24-.17a.2.2 0 01.17.241l-.948 6.136a.198.198 0 01-.197.17zm6.673 1.061h-.056a.21.21 0 01-.156-.254l1.584-6.024a.21.21 0 11.41.1l-1.584 6.023c-.014.099-.113.155-.198.155zm6.532 1.765c-.028 0-.056 0-.07-.014-.114-.043-.156-.17-.128-.269l2.22-5.867c.029-.1.17-.17.269-.128.113.043.17.17.127.269l-2.22 5.853c-.028.1-.099.156-.198.156zm6.306 2.448c-.028 0-.07 0-.099-.029-.099-.056-.155-.17-.099-.282l2.842-5.628c.057-.113.184-.155.283-.099.099.057.156.17.099.283l-2.828 5.642a.225.225 0 01-.198.113zm11.665 6.815c-.043 0-.099-.013-.127-.042-.085-.07-.099-.198-.029-.297l3.973-4.962c.071-.1.198-.113.297-.029.085.071.099.198.029.297l-3.973 4.963c-.043.057-.099.07-.17.07zm5.231 4.311a.234.234 0 01-.155-.056.205.205 0 010-.297l4.468-4.553a.205.205 0 01.297 0 .206.206 0 010 .297l-4.468 4.553c-.029.042-.085.056-.142.056zm4.737 4.821a.262.262 0 01-.17-.07.22.22 0 01.028-.298l4.935-4.086a.196.196 0 01.297.029c.071.084.071.226-.028.296l-4.935 4.087c-.028.042-.085.042-.127.042zm4.199 5.305a.185.185 0 01-.17-.099c-.056-.099-.042-.226.057-.297l5.345-3.563c.084-.07.226-.042.296.057.057.099.043.226-.056.297l-5.345 3.563c-.056.042-.084.042-.127.042zm6.589 11.803a.213.213 0 01-.198-.127c-.042-.113.014-.227.113-.283l5.981-2.418a.218.218 0 01.283.113c.042.113-.015.226-.114.283l-5.98 2.418a.184.184 0 01-.085.014zm2.319 6.362c-.099 0-.17-.056-.198-.155-.029-.113.028-.226.141-.255l6.207-1.795c.113-.043.226.028.255.141.028.113-.029.226-.142.255l-6.207 1.795c-.014.014-.028.014-.056.014zm1.64 6.561c-.099 0-.198-.07-.212-.17a.232.232 0 01.169-.254l6.363-1.16h.042c.099 0 .198.071.212.17a.231.231 0 01-.169.255l-6.363 1.16h-.042zm.919 6.705c-.113 0-.198-.085-.212-.198a.2.2 0 01.198-.226l6.461-.509c.127 0 .226.07.226.198a.2.2 0 01-.198.226l-6.461.51h-.014zm6.15 14.309h-.028l-6.433-.806a.22.22 0 01-.184-.24.214.214 0 01.212-.184h.028l6.434.806a.22.22 0 01.183.24.203.203 0 01-.212.184zm-1.357 7.293h-.043l-6.305-1.456a.21.21 0 01-.156-.255c.014-.113.127-.212.254-.155l6.306 1.456a.21.21 0 01.156.255c-.014.099-.113.155-.212.155zm-2.093 7.126c-.028 0-.042 0-.07-.014l-6.123-2.079c-.113-.028-.169-.155-.127-.269a.192.192 0 01.269-.127l6.122 2.079c.113.028.17.155.127.268a.212.212 0 01-.198.142zm-2.856 6.856c-.028 0-.056 0-.085-.014l-5.867-2.686a.208.208 0 01-.099-.283c.042-.113.169-.155.283-.099l5.867 2.686c.099.043.156.17.099.283a.224.224 0 01-.198.113z" fill="#2E2F36"/><path d="M145.377 78.062c-.665 19.78-9.968 31.714-9.968 31.714l-6.207-3.775s7.635-10.788 8.144-28.349l8.031.41zm-8.625-36.394l-6.744 3.775s6.829 10.859 7.338 28.716l8.031-.127c-.566-20.233-8.625-32.364-8.625-32.364z" fill="#2E2F36"/><path d="M134.885 112.25a.536.536 0 01-.254-.071.5.5 0 01-.156-.679c6.745-10.943 10.308-23.57 10.308-36.492 0-38.458-31.304-69.762-69.762-69.762-38.486-.014-69.775 31.29-69.775 69.747 0 12.91 3.548 25.507 10.264 36.436a.488.488 0 01-.17.679.49.49 0 01-.678-.17C7.847 100.868 4.256 88.086 4.256 74.993c0-39.009 31.728-70.75 70.737-70.75 39.009 0 70.751 31.741 70.751 70.75 0 13.107-3.605 25.903-10.449 37.016a.457.457 0 01-.41.241z" fill="#2E2F36"/><path d="M31.033 106.332c-.568 0-1.074-.114-1.518-.342a3.241 3.241 0 01-1.122-.948 4.446 4.446 0 01-.696-1.398 5.944 5.944 0 01-.234-1.692c0-.604.078-1.17.234-1.698.16-.528.392-.992.696-1.392.304-.404.678-.72 1.122-.948.444-.228.95-.342 1.518-.342.564 0 1.068.114 1.512.342.444.228.818.544 1.122.948.304.4.534.864.69 1.392.16.528.24 1.094.24 1.698 0 .6-.08 1.164-.24 1.692a4.352 4.352 0 01-.69 1.398c-.304.404-.678.72-1.122.948a3.262 3.262 0 01-1.512.342zm0-1.71c.252 0 .48-.058.684-.174.208-.116.386-.286.534-.51.148-.228.262-.508.342-.84.08-.332.12-.714.12-1.146 0-.576-.07-1.062-.21-1.458-.14-.4-.336-.702-.588-.906a1.344 1.344 0 00-.882-.312c-.252 0-.482.06-.69.18a1.525 1.525 0 00-.534.516 2.612 2.612 0 00-.342.834 5.167 5.167 0 00-.114 1.146c0 .576.068 1.062.204 1.458.14.396.336.698.588.906.252.204.548.306.888.306zM24.26 77.95v-6.247l-1.895.672-.522-1.554 4.11-1.452h.132v8.58H24.26zm3.251-28.208v-1.308l1.788-1.602c.552-.496.984-.908 1.296-1.236.312-.328.532-.616.66-.864a1.62 1.62 0 00.192-.75c0-.372-.124-.658-.372-.858-.244-.2-.594-.3-1.05-.3-.364 0-.714.072-1.05.216a2.744 2.744 0 00-.906.636l-.678-1.446c.38-.34.818-.602 1.314-.786a4.25 4.25 0 011.518-.282c.62 0 1.16.108 1.62.324.46.216.814.518 1.062.906.252.384.378.832.378 1.344 0 .344-.068.68-.204 1.008-.136.328-.376.698-.72 1.11-.34.408-.82.904-1.44 1.488l-.822.768h3.408v1.632h-5.994zM48.052 35.82c-.372 0-.738-.041-1.098-.125-.356-.08-.68-.19-.972-.33a2.28 2.28 0 01-.69-.48l.594-1.572c.224.256.522.46.894.612.376.148.758.222 1.146.222.292 0 .548-.046.768-.138.22-.096.39-.23.51-.402.124-.172.186-.374.186-.606 0-.364-.134-.646-.402-.846-.264-.2-.608-.3-1.032-.3-.152 0-.312.012-.48.036-.164.02-.332.052-.504.096l-.528-1.242 2.196-1.896h-3.252V27.24h5.49v1.482l-2.028 1.962a2.87 2.87 0 011.152.33c.364.192.662.466.894.822.232.352.348.788.348 1.308s-.136.982-.408 1.386c-.272.4-.648.716-1.128.948-.48.228-1.032.342-1.656.342zm51.288 0a5.074 5.074 0 01-1.554-.233c-.488-.156-.892-.372-1.212-.648l.57-1.554c.264.264.58.458.948.582.368.12.748.18 1.14.18.308 0 .574-.044.798-.132.228-.088.402-.222.522-.402.124-.18.186-.406.186-.678a.952.952 0 00-.192-.594 1.15 1.15 0 00-.528-.384 2.096 2.096 0 00-.798-.138c-.2 0-.41.024-.63.072-.22.048-.442.122-.666.222l-.816-.9.444-3.966 4.836.012v1.698H98.92l-.192 1.47c.148-.036.294-.064.438-.084.148-.02.3-.03.456-.03.58 0 1.092.108 1.536.324a2.46 2.46 0 011.05.936c.252.404.378.888.378 1.452 0 .568-.136 1.062-.408 1.482a2.68 2.68 0 01-1.134.972c-.484.228-1.052.342-1.704.342zm16.152 16.669c-.648 0-1.226-.138-1.734-.414a3.07 3.07 0 01-1.194-1.188c-.288-.516-.432-1.128-.432-1.836 0-.708.138-1.36.414-1.956.276-.6.66-1.13 1.152-1.59a6.342 6.342 0 011.716-1.146 7.837 7.837 0 012.112-.63l.672 1.464c-.504.06-.958.156-1.362.288a5.05 5.05 0 00-1.068.486 3.88 3.88 0 00-.792.642 3.271 3.271 0 00-.528.75c.188-.156.406-.278.654-.366.248-.092.51-.138.786-.138.548 0 1.036.116 1.464.348a2.62 2.62 0 011.02.96c.248.408.372.874.372 1.398 0 .408-.08.79-.24 1.146a2.804 2.804 0 01-.666.936c-.288.264-.63.472-1.026.624a3.746 3.746 0 01-1.32.222zm0-1.596c.272 0 .512-.054.72-.162a1.25 1.25 0 00.498-.444c.12-.192.18-.412.18-.66 0-.24-.062-.456-.186-.648a1.234 1.234 0 00-.498-.45 1.482 1.482 0 00-.714-.168c-.264 0-.502.056-.714.168a1.288 1.288 0 00-.498.45 1.169 1.169 0 00-.186.648c0 .248.06.468.18.66.124.188.29.336.498.444.212.108.452.162.72.162zm7.209 27.057l3.252-6.63h-3.672v-1.77h5.88v1.397l-3.366 7.002h-2.094zm-7.521 28.382c-.66 0-1.226-.11-1.698-.33-.468-.224-.826-.526-1.074-.906a2.298 2.298 0 01-.372-1.284c0-.336.058-.638.174-.906.12-.268.29-.502.51-.702.224-.2.492-.362.804-.486a2.245 2.245 0 01-.816-.654c-.248-.304-.372-.694-.372-1.17 0-.448.124-.846.372-1.194.248-.352.59-.628 1.026-.828.436-.2.932-.3 1.488-.3.568 0 1.07.102 1.506.306.44.2.784.476 1.032.828.248.348.372.744.372 1.188 0 .32-.058.6-.174.84-.112.24-.26.442-.444.606-.18.164-.368.29-.564.378.432.184.784.456 1.056.816.272.356.408.782.408 1.278 0 .476-.138.904-.414 1.284-.276.38-.658.682-1.146.906-.484.22-1.042.33-1.674.33zm.042-1.548c.232 0 .45-.044.654-.132.204-.092.37-.224.498-.396a1.05 1.05 0 00.198-.648 1.07 1.07 0 00-.672-1.032 1.63 1.63 0 00-.678-.138c-.372 0-.69.102-.954.306-.26.2-.39.488-.39.864 0 .256.062.472.186.648.124.172.288.304.492.396.208.088.43.132.666.132zm.012-3.834c.228 0 .432-.042.612-.126a.99.99 0 00.42-.354c.1-.152.15-.326.15-.522a.947.947 0 00-.33-.738c-.22-.196-.504-.294-.852-.294-.228 0-.432.046-.612.138-.176.088-.314.21-.414.366a.957.957 0 00-.15.528c0 .296.11.538.33.726.224.184.506.276.846.276zm-40.575-73v-1.58h-3.99v-1.416l2.658-5.406h1.962l-2.58 5.232h1.95v-1.638h1.644v1.638h1.146v1.59h-1.146v1.578h-1.644z" fill="#2E2F36"/></g><defs><clipPath id="clip0_4027_15313"><path fill="#fff" d="M0 0h150v150H0z"/></clipPath></defs></svg>