<svg width="50" height="50" fill="none" xmlns="http://www.w3.org/2000/svg"><g clip-path="url(#clip0_4030_15125)" fill="#2E2F36"><path d="M14.469 17.57c.103.461.173.795.265 1.118.472 1.74.944 3.479 1.405 5.219.23.887.046 1.198-.83 1.428-2.303.61-3.824-.253-4.446-2.546-.357-1.325-.715-2.661-1.083-4.032-.288.057-.53.103-.76.15-2.708.541-5.3-1.072-5.98-3.699-.68-2.638.795-5.3 3.445-6.129 1.244-.391 2.511-.702 3.767-1.037 1.475-.391 2.661-1.29 3.767-2.258 1.82-1.59 3.56-3.271 5.3-4.953 1.463-1.406 3.249-.98 3.802.979.38 1.313.726 2.626 1.06 3.94.08.334.219.45.576.484a3.292 3.292 0 012.938 2.385c.391 1.37-.07 2.788-1.245 3.617-.38.265-.415.495-.3.899.346 1.198.646 2.408.98 3.606.242.852.092 1.613-.541 2.223-.634.61-1.383.691-2.247.461-2.223-.576-4.458-1.14-6.705-1.613-1.002-.196-2.05-.161-3.168-.242zm7.43-.576L18.433 4.068c-.127.092-.23.15-.3.23-1.762 1.694-3.56 3.33-5.702 4.551-.3.173-.242.38-.173.634.334 1.22.656 2.442.979 3.663.253.956.518 1.913.783 2.88 2.673-.15 5.22.323 7.88.968zM10.622 9.621c-1.118.3-2.155.564-3.191.84-.277.07-.553.15-.818.266-1.544.645-2.431 2.35-2.063 3.94.404 1.717 1.947 2.938 3.687 2.684 1.394-.196 2.742-.645 4.17-1.002a723.925 723.925 0 00-1.785-6.728zm15 7.753c-.035-.115-.07-.242-.104-.368-.98-3.687-1.97-7.374-2.95-11.06-.333-1.245-.656-2.489-1.002-3.721-.15-.553-.426-.726-.794-.519-.772.438-1.014 1.014-.795 1.855l3.594 13.445c.058.207.161.472.323.553.357.184.748.3 1.14.368.38.07.565-.161.588-.553zm-14.286.934c.438 1.6.818 3.145 1.29 4.654a1.305 1.305 0 001.798.818c-.519-1.936-1.037-3.871-1.567-5.818-.138.011-.23 0-.323.023-.368.092-.737.196-1.198.323zm14.205-7.489c.588-.426.795-1.071.6-1.74-.185-.656-.669-1.071-1.36-1.14.253.968.495 1.912.76 2.88zm22.591 25.739v12.2c0 1.037-.207 1.244-1.244 1.244h-4.896c-.83 0-1.083-.242-1.083-1.048V24.138c0-.806.253-1.048 1.083-1.048h5.011c.876 0 1.118.253 1.13 1.14v12.328zm-5.564-11.82v23.617h3.894V24.737h-3.894zM20.056 40.196V31.67c0-1.037.208-1.233 1.256-1.233h4.781c.922 0 1.187.254 1.187 1.153v17.27c0 .886-.242 1.128-1.13 1.128h-5.01c-.853 0-1.084-.242-1.084-1.106-.011-2.88 0-5.783 0-8.686zm1.66-8.1v16.256h3.905V32.097h-3.906zm20.575-15.873c-.438.046-.726.08-1.014.092-.53.034-.898-.254-.944-.714-.058-.473.219-.818.76-.888a77.92 77.92 0 013.26-.31c.634-.047.991.31.934.944-.093 1.095-.22 2.178-.346 3.26-.07.519-.438.83-.899.76-.507-.068-.725-.39-.702-.886.011-.3.057-.61.092-1.026-.196.162-.323.265-.438.37-2.719 2.741-5.438 5.471-8.134 8.225-.426.426-.84.507-1.394.322-3.041-1.002-6.094-1.981-9.136-2.983-.391-.127-.656-.081-.979.184-3.122 2.454-6.256 4.885-9.4 7.327-.093.07-.185.15-.277.208-.427.241-.83.207-1.118-.196-.276-.392-.196-.784.162-1.072.714-.587 1.44-1.14 2.165-1.705 2.685-2.085 5.369-4.17 8.03-6.267.415-.323.795-.369 1.28-.207 3.006.99 6.013 1.958 9.02 2.949.45.15.714.08 1.048-.265 2.512-2.558 5.046-5.104 7.57-7.65.138-.104.241-.23.46-.472zm-4.585 25.196v7.488c0 .841-.265 1.106-1.095 1.106h-5.069c-.806 0-1.071-.265-1.071-1.06v-15.08c0-.772.276-1.049 1.037-1.049h5.069c.876 0 1.14.254 1.14 1.118-.011 2.477-.011 4.977-.011 7.477zm-1.659 6.947V34.472h-3.929v13.894h3.929zm-19.194-4.645v5.173c0 .84-.265 1.106-1.094 1.106h-5.058c-.818 0-1.083-.254-1.083-1.06V38.468c0-.772.265-1.037 1.037-1.049 1.728 0 3.457-.011 5.173 0 .76 0 1.025.277 1.025 1.06v5.242zm-5.576-4.643v9.263h3.929v-9.263h-3.929zM29.319 2.756c-.496.772-.91 1.51-1.406 2.155-.115.15-.633.15-.818.023-.219-.15-.449-.6-.368-.795.3-.692.68-1.371 1.129-1.982.126-.173.61-.207.875-.115.22.08.357.426.588.714zm-.622 9.931c.069-.703.61-1.06 1.106-.819.587.277 1.152.611 1.693.968.38.254.473.657.242 1.06-.23.415-.622.519-1.037.311a14.376 14.376 0 01-1.636-.945c-.207-.16-.288-.46-.368-.575zm1.428-3.816c-.195-.207-.495-.415-.622-.703-.161-.38.058-.749.427-.887a14.462 14.462 0 011.993-.518c.403-.081.714.138.83.541.114.415-.024.807-.427.945-.668.242-1.36.392-2.2.622z"/></g><defs><clipPath id="clip0_4030_15125"><path fill="#fff" transform="translate(2.867)" d="M0 0h45.265v50H0z"/></clipPath></defs></svg>