<svg width="50" height="50" fill="none" xmlns="http://www.w3.org/2000/svg"><g clip-path="url(#clip0_4027_14411)"><g clip-path="url(#clip1_4027_14411)" fill="#2E2F36"><path d="M7.131 28.03c-.232-.141-.494-.242-.686-.414-.988-.877-1.967-1.785-2.955-2.672-.353-.323-.333-.656-.07-1.03.645-.927 1.27-1.855 1.926-2.773.192-.262.202-.454.03-.716-.161-.253-.323-.525-.383-.817-.131-.555-.464-.757-1.019-.828-1.07-.12-2.128-.302-3.187-.474-.454-.07-.676-.383-.686-.807-.02-1.361-.02-2.723 0-4.085.01-.504.353-.716.817-.796 1.13-.192 2.25-.394 3.369-.616.161-.03.343-.222.434-.373.16-.293.221-.636.403-.918.282-.444.252-.807-.06-1.22-.596-.787-1.15-1.614-1.735-2.421-.374-.515-.353-.827.12-1.271.979-.918 1.947-1.856 2.956-2.744.151-.13.565-.13.767-.03.716.363 1.452.726 2.077 1.22.868.696 1.675.828 2.673.303.464-.242.787-.424.868-.988.141-.928.383-1.836.585-2.754.141-.625.373-.817 1.009-.817 1.31 0 2.622-.01 3.933 0 .656 0 .868.181 1 .817.21 1.019.433 2.037.634 3.056.061.293.162.494.485.535.161.02.343.07.474.161.736.494 1.361.303 2.027-.202.686-.514 1.443-.917 2.159-1.392.423-.272.837-.262 1.2.061 1.009.888 2.007 1.785 2.996 2.703.373.343.373.716.05 1.18-.605.848-1.2 1.705-1.825 2.532-.202.272-.273.484-.071.797.212.333.363.716.494 1.1.101.302.273.413.575.463 1.13.182 2.25.384 3.37.596.604.11.826.383.826 1.008.01 1.23.01 2.451 0 3.682 0 .655-.181.888-.817.998-1.09.202-2.178.404-3.268.585-.303.05-.504.152-.595.495-.1.383-.282.756-.474 1.11-.161.282-.111.473.07.715.626.838 1.221 1.685 1.826 2.532.414.585.384.858-.13 1.352-.889.847-1.776 1.694-2.674 2.532-.535.504-.696.514-1.301.13-.938-.594-1.866-1.19-2.824-1.754-.162-.101-.444-.101-.636-.04a8.21 8.21 0 00-1.362.514c-.171.08-.363.292-.403.474-.252 1.059-.464 2.128-.706 3.197-.121.555-.363.737-.958.747-1.332.01-2.653.01-3.985 0-.605 0-.847-.192-.978-.797a153.869 153.869 0 01-.646-3.107c-.06-.302-.181-.464-.494-.534-.292-.061-.595-.152-.847-.303-.474-.292-.837-.171-1.26.131-.818.585-1.675 1.12-2.523 1.675-.14.11-.353.181-.595.292zm20.8-3.944c-.727-.988-1.342-1.866-1.998-2.723-.333-.434-.293-.817-.06-1.302.322-.635.605-1.31.786-1.997.131-.494.363-.716.827-.797 1.07-.191 2.139-.413 3.218-.595.293-.05.393-.171.393-.464-.02-.575-.04-1.15 0-1.714.04-.495-.11-.696-.635-.757-.999-.121-1.987-.323-2.986-.484-.423-.07-.665-.283-.827-.696a18.086 18.086 0 00-.928-2.007c-.272-.495-.272-.888.07-1.342.656-.887 1.282-1.795 1.927-2.713-.716-.666-1.412-1.301-2.108-1.947-1.039.656-2.068 1.291-3.076 1.957-.333.222-.626.232-.989.08-.585-.252-1.17-.554-1.775-.685-.807-.182-1.13-.636-1.24-1.412-.142-.979-.384-1.937-.576-2.926-.897 0-1.755.02-2.612-.01-.333-.01-.464.111-.525.434-.201 1.019-.464 2.027-.665 3.046-.081.414-.313.585-.666.726-.787.293-1.574.575-2.34.928-.434.202-.777.162-1.17-.1A66.78 66.78 0 007.293 4.89c-.131-.08-.424-.09-.515 0-.585.615-1.14 1.271-1.714 1.906-.03.05.07.202.171.353.595.898 1.2 1.786 1.765 2.694.121.191.141.524.06.736-.282.676-.685 1.301-.927 1.987-.212.605-.565.888-1.18.989-1.11.171-2.21.403-3.319.615v2.703c.111.03.202.07.303.09 1.089.182 2.188.364 3.278.535.343.05.635.162.787.525.332.787.685 1.563 1.059 2.33.181.373.191.706-.03 1.049-.333.504-.676.999-1.02 1.503-.312.454-.625.898-.958 1.382.646.544 1.241 1.039 1.816 1.543.262.222.474.202.757.01.897-.595 1.795-1.18 2.733-1.715.242-.14.646-.15.928-.06.746.242 1.463.585 2.209.847.424.151.676.394.767.837.181.969.403 1.937.575 2.916.06.352.201.463.564.453.737-.03 1.483-.02 2.22 0 .292.01.403-.1.463-.383.212-.998.475-1.997.666-2.996.08-.403.303-.585.666-.716.746-.252 1.503-.494 2.199-.847.524-.262.928-.232 1.402.07.918.596 1.846 1.16 2.794 1.745.605-.554 1.2-1.11 1.795-1.644.06-.11.182-.171.323-.262zm2.289 3.008c.252.131.464.222.655.343a47.79 47.79 0 011.917 1.301c.242.171.424.1.686.05.887-.171 1.15-.756 1.21-1.563.04-.515.182-1.019.293-1.533.12-.585.383-.807.968-.817.989-.01 1.987-.01 2.976 0 .635.01.857.212.978.847.141.746.283 1.483.414 2.23.05.292.191.403.464.554.736.424 1.26.161 1.825-.303.384-.322.828-.575 1.241-.857.494-.333.767-.313 1.2.1.707.677 1.392 1.363 2.088 2.048.434.434.474.787.152 1.302-.404.635-.807 1.28-1.23 1.906-.183.262-.152.474-.082.777.202.817.696 1.12 1.483 1.16.545.03 1.09.181 1.634.292.565.111.777.363.787.938.01.989.01 1.987 0 2.976-.01.575-.212.807-.787.918-.787.161-1.583.302-2.37.484-.141.03-.283.181-.363.323-.495.786-.414 1.493.232 2.189.353.373.595.857.887 1.28.283.404.262.787-.07 1.14a111.5 111.5 0 01-2.139 2.21c-.393.403-.736.413-1.22.09-.626-.423-1.261-.827-1.876-1.28-.293-.213-.515-.192-.858-.102-.776.202-1.059.666-1.11 1.412-.04.565-.19 1.12-.302 1.685-.12.575-.343.777-.928.777-.978.01-1.947 0-2.925 0-.514 0-.807-.232-.898-.757-.13-.777-.312-1.543-.433-2.33-.05-.303-.192-.413-.454-.565-.676-.393-1.19-.222-1.735.242-.414.363-.898.646-1.352.959-.474.332-.887.322-1.311-.071-.777-.726-1.533-1.463-2.3-2.199-.333-.323-.313-.696-.09-1.06.423-.685.857-1.37 1.31-2.037.172-.252.152-.454.081-.736-.201-.746-.625-1.09-1.412-1.12-.635-.03-1.26-.181-1.886-.292-.454-.08-.605-.424-.615-.807-.02-1.09-.02-2.189 0-3.278.01-.414.232-.696.665-.767.797-.131 1.584-.272 2.38-.393.283-.04.394-.192.535-.434.444-.787.293-1.412-.282-2.058-.373-.423-.656-.938-.958-1.412-.242-.373-.172-.736.13-1.059.737-.787 1.463-1.584 2.21-2.35.12-.121.363-.212.585-.353zm-3.722 11.55c.887.16 1.745.322 2.602.463.343.06.505.232.605.565.182.585.404 1.18.676 1.735.242.494.252.918-.05 1.362-.444.645-.868 1.31-1.271 1.906.484.484.948.938 1.432 1.422.666-.454 1.372-.928 2.068-1.432.363-.262.696-.313 1.12-.09.453.241.948.423 1.442.574.454.141.706.404.797.868.161.817.343 1.634.514 2.47h1.947c.151-.867.303-1.704.434-2.551.07-.434.282-.706.736-.858.555-.181 1.09-.423 1.624-.675.424-.202.787-.202 1.17.09.676.495 1.372.949 2.007 1.392l1.443-1.381c-.444-.656-.878-1.312-1.342-1.947-.343-.464-.393-.898-.09-1.392.181-.293.373-.626.433-.958.162-.928.736-1.332 1.604-1.443.1-.01.192-.05.292-.08.535-.172 1.281-.192 1.534-.565.272-.384.06-1.1.07-1.675 0-.03-.02-.06-.04-.13-.111-.031-.242-.061-.363-.092-.726-.13-1.463-.222-2.179-.413-.262-.07-.555-.323-.686-.565-.302-.555-.494-1.17-.756-1.755-.192-.424-.182-.787.1-1.18.404-.575.787-1.17 1.16-1.776.071-.11.071-.363-.01-.454-.363-.433-.766-.837-1.13-1.23a262.66 262.66 0 00-2.238 1.553c-.323.232-.606.252-.969.05a5.76 5.76 0 00-1.392-.564c-.514-.131-.756-.434-.847-.928a39.47 39.47 0 00-.444-2.118c-.03-.121-.181-.293-.292-.303-.565-.03-1.13-.01-1.715-.01-.182.867-.343 1.695-.515 2.512-.08.383-.262.655-.665.796-.565.192-1.13.434-1.675.686-.423.202-.787.212-1.18-.06-.676-.484-1.382-.938-2.007-1.362-.525.504-1.009.979-1.503 1.463.484.706.968 1.422 1.462 2.148.202.303.253.595.091.948a18.03 18.03 0 00-.686 1.725c-.15.474-.433.726-.907.817-.696.131-1.382.273-2.068.434-.131.03-.323.202-.333.313-.03.554-.01 1.11-.01 1.694zM7.232 33.163a10.755 10.755 0 001.453 4.499c2.723 4.67 6.788 7.222 12.205 7.545.363.02.756.05.867.454.07.262.09.666-.06.837-.182.212-.575.353-.868.333-5.366-.293-9.603-2.653-12.7-7.03-1.401-1.978-2.259-4.187-2.632-6.587-.02-.111-.06-.222-.12-.434-.495.504-.929.968-1.373 1.412-.454.454-.867.494-1.23.151-.363-.353-.323-.776.12-1.23.828-.858 1.665-1.715 2.492-2.562.464-.474.827-.484 1.301-.03.888.847 1.766 1.704 2.633 2.572.414.413.424.847.07 1.19-.342.323-.746.303-1.16-.09-.322-.344-.665-.687-.998-1.03zm39.5-11.347c.494-.504.908-.948 1.331-1.372.424-.423.837-.444 1.19-.1.343.342.313.705-.11 1.14-.848.857-1.705 1.714-2.572 2.561-.495.494-.848.494-1.332.01-.837-.827-1.664-1.664-2.491-2.491-.454-.454-.484-.867-.121-1.22.353-.344.736-.313 1.19.1.434.394.847.797 1.341 1.261.081-1.25-.04-2.39-.333-3.51-1.553-5.9-5.275-9.633-11.216-11.116-.615-.15-.878-.494-.767-1.028.111-.485.485-.656 1.11-.515 6.728 1.503 11.71 6.97 12.598 13.84.101.766.121 1.532.182 2.44z"/><path d="M16.572 22.23c-4.044-.232-6.798-2.41-7.292-6.465-.333-2.774 1.694-5.639 4.7-6.708 3.42-1.22 7.404.333 8.947 3.48 1.755 3.57-.12 7.827-4.075 9.169-.726.252-1.513.353-2.28.524zm-.16-1.725a5.88 5.88 0 004.135-1.694c1.583-1.564 1.916-3.894.847-5.84-1.382-2.512-4.64-3.571-7.353-2.35-1.816.816-2.996 2.178-3.158 4.216-.262 3.238 2.139 5.658 5.528 5.668zm21.05 22.907c-3.298 0-5.971-2.623-5.981-5.88-.01-3.3 2.683-6.022 5.93-6.012 3.249.02 5.922 2.703 5.932 5.95.01 3.37-2.542 5.942-5.88 5.942zm4.398-6.093c.151-1.855-1.745-4.196-4.267-4.216-2.481-.02-4.418 1.886-4.438 4.368-.02 2.45 1.846 4.408 4.206 4.418 2.492.01 4.479-2.008 4.499-4.57z"/></g></g><defs><clipPath id="clip0_4027_14411"><path fill="#fff" d="M0 0h50v50H0z"/></clipPath><clipPath id="clip1_4027_14411"><path fill="#fff" transform="translate(.1)" d="M0 0h49.798v50H0z"/></clipPath></defs></svg>