<svg width="50" height="50" fill="none" xmlns="http://www.w3.org/2000/svg"><g clip-path="url(#clip0_4030_13618)"><g clip-path="url(#clip1_4030_13618)"><path d="M15.535 25.495c-.877 0-1.714-.02-2.551.02-.121.01-.293.232-.353.383-.807 2.118-2.773 3.48-4.982 3.429-2.753-.06-5.002-2.33-5.052-5.083-.05-2.783 2.118-5.082 4.931-5.234a5.109 5.109 0 015.355 4.67c.03.363.121.504.504.483.605-.03 1.21-.01 1.816-.01.242 0 .363-.06.383-.332.141-1.634.686-3.137 1.563-4.528.03-.04.04-.091.07-.172a814.857 814.857 0 01-3.065-2.894c-.767-.726-.767-.726-1.735-.272C7.306 18.385 1.215 15.027.57 9.4.036 4.84 3.213.646 7.62.08c4.73-.615 8.945 2.501 9.57 7.15.363 2.703-.443 5.073-2.36 7.05-.11.12-.262.211-.433.342 1.26 1.19 2.45 2.31 3.67 3.46 1.907-2.038 4.206-3.238 6.99-3.41 2.763-.17 5.183.707 7.25 2.431l3.681-3.68c-.423-.475-.907-.959-1.341-1.493-1.886-2.35-2.067-5.587-.494-8.149A7.154 7.154 0 0141.655.505c2.914.585 5.193 2.975 5.647 5.93.817 5.375-4.387 9.63-9.5 7.775-.312-.111-.504-.07-.736.161-1.22 1.25-2.46 2.471-3.731 3.742 1.321 1.553 2.138 3.328 2.43 5.365 1.513 0 2.995.01 4.468-.02.11 0 .262-.252.313-.404.837-2.622 3.983-3.57 6.08-1.835a3.817 3.817 0 011.15 4.245 3.814 3.814 0 01-3.62 2.491c-1.624-.02-3.046-1.028-3.54-2.581-.141-.454-.333-.585-.797-.575-1.29.04-2.581.01-3.761.01-.333 1.331-.585 2.632-.999 3.872-.423 1.271-1.22 2.35-2.218 3.318 1.22 1.15 2.43 2.29 3.66 3.46 1.785-1.836 3.924-2.693 6.465-2.4 1.785.211 3.297.998 4.518 2.309 2.571 2.763 2.672 7.008.262 9.862-2.47 2.925-6.646 3.53-9.833 1.423-2.954-1.947-4.497-6.152-2.228-10.115-1.271-1.19-2.552-2.4-3.863-3.641-1.946 1.402-4.094 2.148-6.494 2.067-2.39-.08-4.478-.948-6.253-2.43-.766.766-1.513 1.523-2.269 2.269 3.943 3.822 3.278 9.52.171 12.596-3.176 3.146-8.148 3.479-11.627.746a8.803 8.803 0 01-2.098-11.537c2.29-3.761 7.695-5.738 12.384-2.763.787-.787 1.563-1.573 2.38-2.38-1.472-1.674-2.289-3.681-2.48-5.97zm7.473.706c-2.188-2.209-1.502-4.72-.262-5.97a4.098 4.098 0 015.577-.273c.776.656 1.26 1.493 1.402 2.491.201 1.462-.273 2.703-1.402 3.752a10.488 10.488 0 014.951 3.055c2.29-3.57 1.342-8.592-2.087-11.345-3.54-2.834-8.602-2.521-11.82.746-3.126 3.177-3.105 7.836-1.26 10.57 1.331-1.463 2.955-2.462 4.901-3.026zM17.26 44.767c1.775-2.743 1.028-6.908-1.654-9.218a7.446 7.446 0 00-9.823.09c-2.934 2.633-3.055 6.717-1.542 9.138.605-.474 1.18-.989 1.835-1.402.655-.414 1.392-.706 2.087-1.049-1.532-2.108-1.512-4.084.061-5.526a3.75 3.75 0 015.012-.06c1.644 1.441 1.674 3.347.121 5.576.686.343 1.402.625 2.047 1.029.636.413 1.21.938 1.856 1.422zm-2.22-32.998c1.715-2.894.928-6.777-1.775-8.935C10.553.666 6.61.838 4.08 3.208c-2.692 2.51-2.743 6.333-1.361 8.49.564-.433 1.099-.917 1.704-1.3.615-.383 1.29-.666 1.946-.988-1.694-1.816-1.16-3.964-.12-5.053 1.26-1.331 3.287-1.533 4.76-.454a3.535 3.535 0 011.411 2.189c.262 1.3-.161 2.39-1.069 3.378 1.442.474 2.652 1.21 3.691 2.3zm17.406 18.647c-3.217-4.175-9.973-4.437-13.513-.02 3.298 4.256 10.034 4.377 13.513.02zm7.322 10.881c-1.019-1.482-.968-2.995.131-4.104a3.01 3.01 0 013.792-.403 2.955 2.955 0 011.22 1.613c.343 1.08.05 2.037-.595 2.895.585.292 1.15.524 1.654.847.504.312.968.716 1.442 1.079 1.25-2.017.989-5.426-1.492-7.483-2.461-2.027-6.051-1.836-8.24.423-1.845 1.906-2.35 5.496-1.008 7.03.484-.364.948-.757 1.452-1.08.514-.302 1.08-.534 1.644-.816zM11.592 24.104c-.01-2.098-1.724-3.782-3.842-3.772-2.098.01-3.812 1.715-3.812 3.812 0 2.098 1.755 3.853 3.852 3.843 2.108 0 3.812-1.745 3.802-3.883zM37.964 8.24c-.918-1.452-.807-2.945.343-3.964a2.908 2.908 0 013.791-.07c1.22 1.029 1.362 2.46.424 4.034.978.605 1.946 1.21 2.915 1.815 1.26-2.32.574-5.405-1.634-7.13-2.219-1.734-5.385-1.613-7.453.272-1.966 1.795-2.531 4.962-1.29 6.858.957-.595 1.915-1.2 2.904-1.815zM16.413 46.007c-3.026-3.711-8.693-3.409-11.305.01 2.763 3.399 8.229 3.65 11.305-.01zm-2.199-33.078c-2.813-3.439-8.158-3.207-10.66.02 2.673 3.288 8.099 3.288 10.66-.02zm32.372 31.525c-2.35-2.945-7.06-2.693-9.086.02 2.43 2.915 6.968 2.652 9.086-.02zM44.57 11.326c-2.158-2.632-6.676-2.612-8.652.01 2.097 2.622 6.605 2.632 8.652-.01zM28.434 23.074a2.729 2.729 0 00-2.764-2.733 2.729 2.729 0 00-2.732 2.764 2.729 2.729 0 002.763 2.733 2.735 2.735 0 002.733-2.764zm13.291 1.1a2.451 2.451 0 002.471 2.45 2.452 2.452 0 002.47-2.46 2.492 2.492 0 00-2.5-2.491 2.475 2.475 0 00-2.44 2.5zm-33.39 15.41a2.415 2.415 0 002.4 2.41c1.341.01 2.45-1.1 2.44-2.431a2.43 2.43 0 00-2.42-2.4c-1.351-.02-2.42 1.059-2.42 2.42zM6.62 6.827c0 1.26 1.008 2.249 2.279 2.249 1.25-.01 2.269-1.039 2.259-2.28-.01-1.24-1.06-2.278-2.3-2.258A2.27 2.27 0 006.62 6.827zm35.437 30.809a1.679 1.679 0 00-.02 3.358c.898.01 1.674-.746 1.694-1.654.02-.908-.756-1.694-1.674-1.704zM38.69 6.425a1.565 1.565 0 001.543 1.583c.847 0 1.573-.716 1.573-1.563 0-.827-.696-1.533-1.533-1.543a1.517 1.517 0 00-1.583 1.523z" fill="#2E2F36"/></g></g><defs><clipPath id="clip0_4030_13618"><path fill="#fff" d="M0 0h50v50H0z"/></clipPath><clipPath id="clip1_4030_13618"><path fill="#fff" transform="translate(.51)" d="M0 0h48.981v50H0z"/></clipPath></defs></svg>