<svg width="50" height="50" fill="none" xmlns="http://www.w3.org/2000/svg"><g clip-path="url(#clip0_4030_3201)"><g clip-path="url(#clip1_4030_3201)" fill="#2E2F36"><path d="M8.344 6.851v-3.87c0-1.713.846-2.583 2.548-2.583h28.216c1.702 0 2.548.858 2.56 2.572 0 1.226.011 2.464.011 3.69 0 .036.024.072.06.191h.607c1.464 0 2.94-.012 4.405 0 1.964.012 3.262 1.298 3.262 3.25v28.87c0 1.918-1.298 3.215-3.214 3.227-4.024.012-8.06 0-12.084 0h-.738v2.37c.214.011.416.035.63.035.953 0 1.905-.012 2.858.012 1.393.036 2.44 1.024 2.536 2.417.035.63.024 1.274.012 1.905-.012.511-.274.761-.786.761H11.25c-1.108 0-1.215-.107-1.215-1.238 0-.44-.012-.869 0-1.31.048-1.476 1.12-2.523 2.595-2.547 1.131-.012 2.25 0 3.465 0 0-.75.012-1.429-.012-2.12 0-.094-.167-.225-.286-.273-.143-.048-.31-.012-.476-.012H3.416c-2.167 0-3.417-1.25-3.417-3.405V10.28c0-2.203 1.238-3.429 3.429-3.44 1.607.011 3.214.011 4.916.011zM1.308 36.043h47.36c.012-.13.035-.214.035-.286V9.982c0-1.095-.75-1.821-1.845-1.833-1.583-.012-3.178 0-4.762 0-.13 0-.262.036-.417.06v.678c0 1.845.012 3.69 0 5.536-.012 1.369-.88 2.274-2.25 2.333-.476.024-.952.012-1.428 0-.429-.012-.738-.202-.727-.678.012-.44.31-.607.715-.62.38-.011.75 0 1.13 0 .965-.011 1.25-.285 1.25-1.226V6.97c0-.19-.023-.38-.035-.595h-9.417c.286.512.357.964-.012 1.429-.119.142-.214.404-.167.535.06.143.31.238.5.274.608.107.929.405.94 1.024.025.69.025 1.393 0 2.083-.011.69-.309.977-1 1.096-.166.023-.38.143-.44.273-.06.131.024.358.131.5.417.572.429.977-.047 1.477-.465.488-.94.964-1.429 1.428-.512.477-.917.489-1.476.06-.429-.333-.703-.214-.786.321-.107.715-.417 1-1.143 1.012a50.82 50.82 0 01-1.905 0c-.726-.012-1.035-.297-1.143-1.012-.083-.535-.357-.642-.785-.321-.56.429-.965.417-1.477-.071a40.43 40.43 0 01-1.428-1.43c-.477-.5-.465-.916-.048-1.475.095-.131.179-.37.12-.5-.06-.131-.287-.239-.441-.262-.69-.12-.989-.405-1-1.096-.012-.571 0-1.154 0-1.726 0-1.024.142-1.155 1.13-1.405.155-.035.382-.524.346-.56-.5-.5-.584-1.035-.214-1.642h-9.43c0 2.774-.011 5.488.012 8.203 0 .535.358.833.881.857.477.024.953.012 1.43.012.428 0 .761.143.773.63.012.513-.345.667-.798.68a21.46 21.46 0 01-1.19 0c-1.548-.024-2.417-.917-2.429-2.465V8.137H3.618c-1.702.012-2.31.619-2.31 2.262v25.644zm47.372 1.393H1.296v1.179c0 1.666.596 2.273 2.239 2.273H46.44c.203 0 .393.012.596-.011.845-.06 1.56-.715 1.619-1.548.071-.607.024-1.226.024-1.893zM40.358 5.042v-1.93c0-1.166-.238-1.404-1.381-1.404H11.023c-.178 0-.405-.06-.524.024-.297.19-.738.428-.774.678-.095.858-.035 1.727-.035 2.56a.638.638 0 00.178.048c3.453 0 6.905.012 10.346 0 .179 0 .37-.096.524-.215.464-.333.905-.333 1.357.024.464.357.726.25.81-.321.095-.631.38-.94 1-.965a22.648 22.648 0 012.202 0c.56.024.905.334.988.917.096.655.31.726.87.322.404-.286.785-.274 1.226-.048.274.143.607.274.916.274 3.108.036 6.227.036 9.334.036h.917zm-1.703 43.311c.012-.178.024-.297.024-.417.036-1.726-.274-2.035-2.024-2.035H13.107c-.215 0-.44-.012-.655.011-.607.084-1.06.489-1.107 1.072-.048.44-.012.893-.012 1.381 9.131-.012 18.203-.012 27.322-.012zM28.631 6.065c-1.178.822-2.62.227-2.905-1.202h-1.44c-.298 1.429-1.727 2.024-2.905 1.202-.346.334-.69.679-1.036 1.012.833 1.179.226 2.631-1.167 2.917v1.524c.94-.214 1.084.44 1.357 1.071.286.655.524 1.215-.202 1.691l1.131 1.167c.464-.87 1.036-.5 1.679-.25.654.262 1.25.464 1.06 1.357h1.63c-.273-.952.417-1.071 1.024-1.357.643-.298 1.203-.56 1.631.107.429-.345.81-.667 1.262-1.024-.893-.536-.476-1.107-.25-1.75.238-.679.5-1.202 1.334-1.048V9.9c-1.274.25-1.12-.881-1.524-1.476-.37-.56.035-.917.393-1.334-.381-.357-.727-.69-1.072-1.024zm3.965 36.18h-15.18v2.298h15.18v-2.297z"/><path d="M13.702 20.017v-8.703c0-1.167.083-1.262 1.238-1.262.44 0 .869-.012 1.31 0 .416.012.702.226.702.643 0 .429-.286.631-.703.643-.392.012-.785 0-1.25 0v8.977c0 .845-.178 1.023-1 1.023-1.821 0-3.655.012-5.476 0-.381 0-.631.06-.822.477C7.19 22.922 6 23.434 4.821 23.16a2.513 2.513 0 01-1.93-2.476 2.591 2.591 0 012.013-2.489c1.107-.25 2.321.31 2.81 1.393.166.381.368.477.75.465 1.547-.024 3.095-.012 4.643-.012.178 0 .357-.012.595-.024zm-8.239 1.917c.679-.012 1.227-.596 1.215-1.274a1.235 1.235 0 00-1.227-1.203c-.678 0-1.262.56-1.25 1.238 0 .68.596 1.25 1.262 1.239zM35 11.362c-.476 0-.857.011-1.226 0-.405-.012-.714-.203-.714-.631 0-.465.297-.667.738-.667.512-.012 1.036 0 1.548 0 .762 0 .952.19.952.94v9.013c.25.012.44.035.631.035 1.524 0 3.06-.011 4.584.012.369 0 .583-.06.762-.44.476-1 1.321-1.524 2.452-1.453 1.072.072 1.81.655 2.214 1.631.393.965.12 2.048-.654 2.774-1.203 1.143-3.227.786-3.989-.738-.19-.393-.416-.488-.81-.488-1.82.012-3.654.012-5.476.012-.845 0-1.012-.167-1.012-1v-9zm10.81 9.333a1.25 1.25 0 00-1.262-1.238c-.666 0-1.202.536-1.226 1.203-.012.678.536 1.262 1.215 1.273.678.012 1.273-.57 1.273-1.238zm-33.382 7.669h7.06v-8.655c0-.178-.06-.405.036-.524.154-.214.392-.476.607-.512.178-.023.452.25.595.453.095.143.06.38.06.583v8.93c0 .928-.155 1.07-1.072 1.07-2.238 0-4.476.012-6.726 0-.37 0-.584.06-.762.453-.477 1.083-1.679 1.643-2.81 1.381-1.179-.262-2.024-1.298-2.024-2.476 0-1.167.845-2.227 2-2.5a2.528 2.528 0 012.834 1.357c.071.143.13.297.202.44zm-2.512 1.929c.69.012 1.262-.524 1.262-1.214a1.225 1.225 0 00-1.238-1.25c-.667 0-1.215.511-1.238 1.19-.012.679.535 1.262 1.214 1.274zm20.596-1.93c.215.024.346.036.488.036 2.048 0 4.084 0 6.132.012.31 0 .476-.083.619-.393.535-1.155 1.702-1.726 2.88-1.44 1.12.262 1.965 1.31 1.977 2.452.012 1.167-.821 2.214-1.988 2.5-1.179.286-2.345-.286-2.881-1.452-.143-.322-.322-.381-.631-.381-2.286.012-4.56.012-6.846 0-.893 0-1.047-.155-1.047-1.036v-8.989c0-.202-.036-.44.06-.583.142-.202.404-.44.606-.428.203.011.44.261.584.476.095.143.035.38.035.583v7.917c.012.226.012.453.012.726zm9.536 1.93c.69 0 1.25-.56 1.25-1.24 0-.69-.56-1.237-1.262-1.225a1.227 1.227 0 00-1.214 1.214c-.012.69.536 1.25 1.226 1.25zm-14.405-6.026c0 1.548.012 3.096-.012 4.643 0 .37.071.596.452.774 1.108.5 1.667 1.703 1.393 2.87-.262 1.142-1.345 2-2.512 1.975-1.154-.011-2.19-.857-2.452-1.976a2.511 2.511 0 011.405-2.857c.392-.179.452-.405.452-.774-.012-3.036-.012-6.072 0-9.096 0-.202-.06-.44.024-.583.143-.226.393-.548.571-.536.238.024.56.298.631.536.107.37.036.786.036 1.179.012 1.274.012 2.56.012 3.845zm-.584 6.465a1.23 1.23 0 00-1.285 1.19c-.024.703.5 1.25 1.214 1.262a1.208 1.208 0 001.25-1.155c.024-.69-.5-1.273-1.178-1.297zm-.023 7.764h1.488c.417 0 .714.167.738.607.024.477-.286.679-.714.69a134.2 134.2 0 01-3.096 0c-.404 0-.702-.202-.702-.642 0-.464.31-.655.75-.655h1.536zM37.632 3.993c-.239 0-.512.071-.703-.024-.226-.107-.536-.357-.547-.56-.012-.202.261-.583.452-.619a4.357 4.357 0 011.571 0c.19.036.465.417.453.62-.012.202-.31.452-.536.57-.178.084-.452.013-.69.013zm-6.644.001c-.202 0-.393.012-.595 0-.393-.023-.702-.238-.62-.619.049-.238.334-.56.56-.607.429-.095.905-.06 1.358-.024.393.024.666.298.56.667-.072.238-.37.44-.62.571-.166.084-.428.012-.643.012zm3.322.001c-.238 0-.512.072-.703-.024-.226-.119-.523-.369-.523-.571-.012-.203.261-.572.464-.62a4.037 4.037 0 011.512-.011c.214.036.476.417.488.643.012.178-.31.44-.548.547-.178.108-.452.036-.69.036zm-9.322 9.999c-1.821-.012-3.298-1.5-3.274-3.298a3.305 3.305 0 013.322-3.274c1.81.012 3.297 1.512 3.286 3.31a3.329 3.329 0 01-3.334 3.262zm.036-5.274A1.997 1.997 0 0023 10.696a2 2 0 001.94 2c1.108.024 2.024-.857 2.048-1.94a1.982 1.982 0 00-1.964-2.036z"/></g></g><defs><clipPath id="clip0_4030_3201"><path fill="#fff" d="M0 0h50v50H0z"/></clipPath><clipPath id="clip1_4030_3201"><path fill="#fff" transform="translate(-.001 .398)" d="M0 0h50.002v49.3H0z"/></clipPath></defs></svg>