<svg width="20" height="24" fill="none" xmlns="http://www.w3.org/2000/svg"><g clip-path="url(#clip0_4027_15544)" fill="#fff"><path d="M0 3.336c.245 0 .47-.007.693 0a15.02 15.02 0 007.08-1.462c.72-.341 1.398-.771 2.092-1.17.107-.06.178-.067.28 0a16.633 16.633 0 005 2.198 15.07 15.07 0 004.407.434c.377-.018.38-.01.416.37.021.249.04.498.036.743-.008 1.13.01 2.265-.043 3.393a17.697 17.697 0 01-1.703 6.813c-1.654 3.453-4.183 6.12-7.372 8.19-.26.167-.523.327-.79.477a.21.21 0 01-.185 0 20.174 20.174 0 01-6.01-5.171 18.025 18.025 0 01-3.513-7.61A19.67 19.67 0 010 6.693c-.004-1.056 0-2.109 0-3.165v-.192zm17.33 2.628l-.093-.014c-.882-.146-1.771-.256-2.642-.448a16.032 16.032 0 01-4.392-1.7c-.146-.082-.256-.086-.406-.004a17.656 17.656 0 01-5.327 1.91c-.53.1-1.063.167-1.597.256-.096.014-.206.003-.21.17-.028 1.892.196 3.749.79 5.552 1.18 3.57 3.371 6.394 6.423 8.563.092.068.152.064.245-.003a18.05 18.05 0 002.848-2.564c1.42-1.58 2.54-3.347 3.3-5.335.655-1.71.996-3.481 1.053-5.306.018-.355.007-.71.007-1.077z"/><path d="M15.97 7.58c-.383 4.474-2.286 8.144-5.785 10.971-.132.107-.22.114-.36.004-2.727-2.18-4.52-4.958-5.38-8.343a15.294 15.294 0 01-.43-2.895c-.007-.142.028-.196.174-.217a18.67 18.67 0 005.64-1.817c.121-.06.22-.068.345-.004a19.005 19.005 0 005.06 1.725c.193.036.385.075.58.096.14.014.207.064.178.214-.021.085-.018.177-.021.266zm-3.154 1.295c-1.152 1.155-2.322 2.325-3.513 3.52-.498-.505-.992-1.006-1.487-1.504-.312.313-.615.619-.906.914.807.807 1.621 1.622 2.425 2.422 1.469-1.469 2.948-2.948 4.427-4.424-.295-.292-.6-.59-.946-.928z"/></g><defs><clipPath id="clip0_4027_15544"><path fill="#fff" transform="translate(0 .656)" d="M0 0h20v22.689H0z"/></clipPath></defs></svg>