<svg width="42" height="28" fill="none" xmlns="http://www.w3.org/2000/svg"><path d="M24.698 18.135h-8.952c-.3 1.816-1.31 2.848-2.81 2.865-1.565.023-2.548-.936-2.92-2.86-.167-.034-.345-.05-.511-.096a2.044 2.044 0 01-1.494-1.946 113.84 113.84 0 01-.001-2.678c.005-.626.3-1.083.816-1.416.134-.084.267-.203.356-.338.516-.773 1.027-1.551 1.543-2.335 1.017-1.551 2.438-2.33 4.276-2.324 1.972.005 3.943.011 5.914-.006a2.791 2.791 0 011.866.666c1.6 1.314 3.21 2.606 4.804 3.914a.936.936 0 00.622.232c1.4.045 2.754.321 4.06.823 1.032.395 1.71 1.41 1.72 2.533.006.428.023.868-.05 1.291A1.987 1.987 0 0132 18.119c-.522.011-1.05 0-1.566 0-.406 1.98-1.389 2.922-2.982 2.882-1.466-.034-2.488-1.094-2.755-2.865zm.489-6.357c-.045-.051-.061-.085-.089-.102-1.15-.936-2.288-1.873-3.448-2.792a1.117 1.117 0 00-.633-.22c-.95-.022-1.905-.011-2.86-.011-.073 0-.14.017-.211.022v3.103h7.24zm-8.913-3.125c-.494 0-.972-.011-1.455 0-.955.022-1.788.372-2.388 1.128-.483.61-.883 1.297-1.316 1.952-.005.01.006.033.011.05h5.148v-3.13zm-4.61 9.46a1.222 1.222 0 001.206 1.246c.66.005 1.222-.559 1.227-1.23.006-.677-.544-1.24-1.21-1.24a1.213 1.213 0 00-1.222 1.223zm17.116 0c0-.683-.544-1.23-1.222-1.23-.666 0-1.216.564-1.21 1.24.005.677.56 1.236 1.227 1.23.66 0 1.205-.558 1.205-1.24z" fill="#fff"/><g clip-path="url(#clip0_4027_15549)"><path d="M32.996 2c.073-.001.117.035.143.118l.28.913c.056.187.11.374.17.56.141.421.427.697.852.828.472.146.946.289 1.418.433.06.019.112.04.132.106.024.079-.017.152-.106.179-.264.083-.529.163-.794.243-.246.075-.495.14-.735.228a1.223 1.223 0 00-.779.832l-.433 1.418c-.018.06-.04.114-.105.133-.08.025-.153-.017-.18-.11-.116-.373-.23-.746-.343-1.12-.04-.127-.074-.256-.118-.382a1.208 1.208 0 00-.8-.787c-.492-.159-.988-.305-1.482-.455-.066-.02-.11-.056-.116-.126-.008-.076.03-.127.113-.152.373-.114.745-.228 1.12-.341.115-.036.231-.07.346-.108a1.24 1.24 0 00.839-.856l.433-1.418c.03-.097.071-.135.145-.136z" fill="#fff"/></g><g clip-path="url(#clip1_4027_15549)"><path d="M36.996 9c.073-.001.117.035.143.118l.28.913c.056.186.11.374.17.56.141.421.427.697.852.828.472.146.946.289 1.418.433.06.018.112.04.132.106.024.079-.017.152-.106.179-.264.083-.529.163-.794.243-.246.075-.495.14-.735.228a1.223 1.223 0 00-.779.832l-.433 1.418c-.018.06-.04.114-.105.133-.08.025-.153-.017-.18-.11a270.05 270.05 0 01-.343-1.12c-.04-.127-.074-.256-.118-.382a1.208 1.208 0 00-.8-.787c-.492-.159-.987-.305-1.482-.455-.066-.02-.11-.056-.116-.126-.008-.076.03-.127.113-.152.373-.114.745-.228 1.12-.341.115-.036.231-.07.346-.108a1.24 1.24 0 00.839-.856l.433-1.418c.03-.096.071-.135.145-.136z" fill="#fff"/></g><g clip-path="url(#clip2_4027_15549)"><path d="M27.996 4c.073-.001.117.035.143.118l.28.913c.056.187.11.374.17.56.141.421.427.697.852.828.472.146.946.289 1.418.433.06.019.112.04.132.106.024.079-.017.152-.106.179-.264.083-.529.163-.794.243-.246.075-.495.14-.735.228a1.223 1.223 0 00-.779.832l-.433 1.418c-.018.06-.04.114-.105.133-.08.025-.153-.017-.18-.11-.116-.373-.23-.746-.343-1.12-.04-.127-.074-.256-.118-.382a1.208 1.208 0 00-.8-.787c-.492-.159-.988-.305-1.482-.455-.066-.02-.11-.056-.116-.126-.008-.076.03-.127.113-.152.373-.114.745-.228 1.12-.341.115-.036.231-.07.346-.108a1.24 1.24 0 00.839-.856l.433-1.418c.03-.096.071-.135.145-.136z" fill="#fff"/></g><g clip-path="url(#clip3_4027_15549)"><path d="M6.996 2c.073-.001.117.035.143.118l.28.913c.056.187.11.374.17.56.141.421.427.697.852.828.472.146.946.289 1.418.433.06.019.113.04.132.106.024.079-.017.152-.106.179-.264.083-.529.163-.794.243-.246.075-.495.14-.735.228a1.223 1.223 0 00-.779.832l-.433 1.418c-.018.06-.04.114-.105.133-.08.025-.153-.017-.18-.11a295.23 295.23 0 01-.343-1.12c-.04-.127-.074-.256-.118-.382a1.208 1.208 0 00-.8-.787c-.492-.159-.987-.305-1.482-.455-.066-.02-.11-.056-.116-.126-.007-.076.03-.127.113-.152a296.5 296.5 0 011.12-.341c.115-.036.231-.07.346-.108a1.24 1.24 0 00.839-.856l.433-1.418c.03-.097.071-.135.145-.136z" fill="#fff"/></g><g clip-path="url(#clip4_4027_15549)"><path d="M4.996 7c.073-.001.117.035.143.118l.28.913c.056.187.11.374.17.56.141.421.427.697.852.828.472.146.946.289 1.418.433.06.019.113.04.132.106.024.079-.017.152-.106.179-.264.083-.529.163-.794.243-.246.075-.495.14-.735.228a1.223 1.223 0 00-.779.832l-.433 1.418c-.018.06-.04.114-.105.133-.08.025-.153-.017-.18-.11-.116-.373-.23-.746-.343-1.12-.04-.127-.074-.256-.118-.382a1.209 1.209 0 00-.8-.787c-.492-.159-.987-.305-1.482-.455-.066-.02-.11-.056-.116-.126-.007-.076.03-.127.113-.152a296.5 296.5 0 011.12-.341c.115-.036.231-.07.346-.108a1.24 1.24 0 00.839-.856l.433-1.418C4.88 7.04 4.922 7 4.996 7z" fill="#fff"/></g><defs><clipPath id="clip0_4027_15549"><path fill="#fff" transform="translate(30 2)" d="M0 0h6v6H0z"/></clipPath><clipPath id="clip1_4027_15549"><path fill="#fff" transform="translate(34 9)" d="M0 0h6v6H0z"/></clipPath><clipPath id="clip2_4027_15549"><path fill="#fff" transform="translate(25 4)" d="M0 0h6v6H0z"/></clipPath><clipPath id="clip3_4027_15549"><path fill="#fff" transform="translate(4 2)" d="M0 0h6v6H0z"/></clipPath><clipPath id="clip4_4027_15549"><path fill="#fff" transform="translate(2 7)" d="M0 0h6v6H0z"/></clipPath></defs></svg>