<svg width="26" height="14" fill="none" xmlns="http://www.w3.org/2000/svg"><g clip-path="url(#clip0_4027_15568)"><path d="M16.698 11.135H7.747c-.3 1.816-1.311 2.848-2.81 2.865-1.566.023-2.55-.936-2.921-2.86-.167-.034-.345-.05-.511-.096A2.044 2.044 0 01.01 9.098C0 8.208 0 7.31.01 6.42c.005-.626.3-1.083.816-1.416.134-.084.267-.203.356-.338.516-.773 1.027-1.551 1.543-2.335C3.743.779 5.164 0 7.002.006 8.974.01 10.945.017 12.916 0a2.791 2.791 0 011.866.666c1.6 1.314 3.21 2.606 4.804 3.914a.936.936 0 00.622.232c1.4.045 2.754.321 4.06.823 1.032.395 1.71 1.41 1.72 2.533.006.428.023.868-.05 1.291a1.987 1.987 0 01-1.937 1.659c-.522.011-1.05 0-1.566 0-.406 1.98-1.389 2.922-2.982 2.882-1.466-.034-2.488-1.094-2.755-2.865zm.489-6.357c-.045-.051-.061-.085-.089-.102-1.15-.936-2.288-1.873-3.448-2.792a1.117 1.117 0 00-.633-.22c-.95-.022-1.905-.011-2.86-.011-.073 0-.14.017-.211.022v3.103h7.24zM8.274 1.653c-.494 0-.972-.011-1.455 0-.955.022-1.788.372-2.388 1.128-.483.61-.883 1.297-1.316 1.952-.005.01.006.033.011.05h5.148v-3.13zm-4.61 9.46a1.222 1.222 0 001.206 1.246c.66.005 1.222-.559 1.227-1.23.006-.677-.544-1.24-1.21-1.24a1.213 1.213 0 00-1.222 1.223zm17.116 0c0-.683-.544-1.23-1.222-1.23-.666 0-1.216.564-1.21 1.24.005.677.56 1.236 1.227 1.23.66 0 1.205-.558 1.205-1.24z" fill="#fff"/></g><defs><clipPath id="clip0_4027_15568"><path fill="#fff" d="M0 0h26v14H0z"/></clipPath></defs></svg>