<svg width="124" height="53" fill="none" xmlns="http://www.w3.org/2000/svg"><g clip-path="url(#clip0_4027_14540)"><path d="M41.333 6.355c0-2.024.828-3.588 2.485-4.695C45.473.553 47.85 0 50.949 0s5.507.257 7.23.769v4.655c-1.922-.62-4.192-.93-6.808-.93-2.617 0-3.926.809-3.926 2.428v1.092c0 .81.182 1.438.547 1.883.363.446 1.076.897 2.136 1.356l5.714 2.632c2.684 1.188 4.024 2.996 4.024 5.424v2.388c0 2.052-.911 3.637-2.732 4.757-1.823 1.12-4.423 1.68-7.802 1.68-3.379 0-5.913-.297-7.602-.892v-4.695c2.119.73 4.522 1.092 7.205 1.092 3.28 0 4.92-.836 4.92-2.51v-1.053c0-.702-.174-1.248-.523-1.64-.347-.391-.985-.79-1.913-1.194l-5.465-2.429c-3.081-1.376-4.621-3.36-4.621-5.95v-2.51.002zM64.315 4.94c1.889-.511 4.39-.768 7.503-.768 3.114 0 5.384.56 6.81 1.68 1.423 1.12 2.136 2.8 2.136 5.04v17.042h-5.666v-1.7c-1.29 1.214-3.105 1.822-5.441 1.822s-4.05-.473-5.142-1.417c-1.094-.944-1.64-2.388-1.64-4.331V20.93c0-1.646.48-2.942 1.441-3.886.961-.945 2.517-1.66 4.671-2.146L75 13.563V10.85c-.034-.836-.331-1.442-.894-1.82-.564-.378-1.856-.568-3.875-.568s-3.992.283-5.914.85V4.94h-.001zm4.422 16.194v1.174c0 1.376.878 2.065 2.634 2.065 1.359 0 2.55-.297 3.578-.89v-5.91l-3.528.808c-1.093.244-1.814.554-2.16.931-.35.379-.523.985-.523 1.823l-.001-.002zm32.63-15.568c-1.159-.88-2.682-1.319-4.57-1.319-1.889 0-3.842.395-5.863 1.177v-1.22c-2.277.082-4.165.326-5.663.737v30.73l6.011-1.38v-6.36h4.323c2.285 0 4.107-.506 5.465-1.519 1.358-1.013 2.037-2.502 2.037-4.476V9.43c0-1.699-.579-2.987-1.738-3.865h-.002zM97.045 21.25c0 1.46-.977 2.19-2.932 2.19h-2.832V9.513a8.294 8.294 0 013.478-.775c1.524 0 2.286.588 2.286 1.743v10.77zm10.508-16.31c1.888-.511 4.389-.768 7.503-.768 3.113 0 5.384.56 6.809 1.68 1.423 1.12 2.136 2.8 2.136 5.04v17.042h-5.665v-1.7c-1.291 1.214-3.105 1.822-5.442 1.822-2.336 0-4.049-.473-5.142-1.417-1.093-.944-1.639-2.388-1.639-4.331V20.93c0-1.646.48-2.942 1.441-3.886.961-.945 2.517-1.66 4.671-2.146l6.011-1.336V10.85c-.033-.836-.331-1.442-.894-1.82-.564-.378-1.856-.568-3.875-.568a20.8 20.8 0 00-5.913.85V4.94h-.001zm4.421 16.194v1.174c0 1.376.878 2.065 2.634 2.065 1.359 0 2.551-.297 3.579-.89v-5.91l-3.528.808c-1.094.244-1.814.554-2.161.931-.349.379-.522.985-.522 1.823l-.002-.002zM0 36.617h3.984c1.32 0 2.314.276 2.982.824.669.55 1.003 1.28 1.003 2.191v7.358c0 .911-.334 1.642-1.003 2.191-.668.55-1.663.824-2.982.824H0V36.617zm6.716 3.016c0-1.407-.91-2.11-2.732-2.11h-2.73V49.1h2.731c1.822 0 2.732-.703 2.732-2.11v-7.357l-.001-.002zm18.395-.645h-.827c-.5 0-.927.128-1.278.382.568.496.852 1.16.852 1.99v1.568c0 .898-.335 1.6-1.002 2.11-.669.51-1.67.764-3.007.764-1.087 0-1.63.41-1.63 1.226 0 .361.138.627.414.794.276.167.74.251 1.392.251h1.478c2.238 0 3.358.764 3.358 2.291v.202c0 1.62-1.454 2.432-4.361 2.432h-1.028c-1.588 0-2.832-.188-3.734-.563V51.43c1.02.443 2.264.663 3.734.663h1.002c2.088 0 3.132-.503 3.132-1.508v-.221c0-.469-.138-.818-.414-1.045-.276-.228-.831-.342-1.667-.342h-1.504c-.936 0-1.663-.148-2.18-.443-.518-.295-.777-.717-.777-1.267v-.322c0-.334.116-.613.35-.833.234-.222.535-.372.903-.453-1.654-.348-2.481-1.26-2.481-2.734v-1.568c0-.897.334-1.6 1.003-2.11.669-.509 1.617-.763 2.845-.763 1.227 0 2.192.194 2.894.582.3-.736 1.02-1.105 2.155-1.105h.376v1.026h.002zm-2.506 3.94V41.36c0-.657-.217-1.149-.65-1.477-.436-.328-1.138-.492-2.106-.492-.969 0-1.67.165-2.106.492-.435.328-.65.822-.65 1.477v1.568c0 .657.216 1.148.65 1.477.434.328 1.136.492 2.106.492s1.67-.164 2.105-.492c.434-.329.651-.822.651-1.477zm11.152-6.333v2.09h3.433v.904h-3.433v8.08c0 .537.158.92.476 1.147.317.227.818.342 1.504.342.685 0 1.26-.066 1.728-.202v.925c-.5.12-1.181.18-2.042.18-.86 0-1.562-.203-2.105-.613-.543-.408-.815-1.002-.815-1.78v-8.08h-1.63v-.904h1.655l.35-2.09h.877l.002.001zm8.796 1.992c2.74 0 4.11.911 4.11 2.734v8.684h-1.227v-.804c-.317.2-.593.355-.827.462-.585.282-1.378.422-2.38.422-2.34 0-3.51-.898-3.51-2.694v-.643c0-1.327 1.003-2.219 3.007-2.674l3.709-.845v-1.91c0-.602-.205-1.048-.614-1.336-.41-.288-1.187-.433-2.331-.433-1.145 0-2.185.134-3.12.402v-1.005c.935-.24 1.996-.361 3.183-.361v.001zm-2.606 8.202v.624c0 .616.18 1.069.539 1.356.36.29.965.433 1.817.433 1.219 0 2.264-.308 3.132-.925v-4.1l-3.309.743c-.818.2-1.386.443-1.703.723-.318.282-.476.664-.476 1.146zm10.35-11.117h1.254v14.332h-1.254V35.672zm9.839.945h6.691v.905H61.39v5.489h5.213v.905H61.39v6.09h-1.254V36.619zm28.324 1.97c2.74 0 4.109.911 4.109 2.734v8.684h-1.23v-.804c-.317.2-.592.355-.826.462-.586.282-1.38.422-2.381.422-2.34 0-3.51-.898-3.51-2.694v-.643c0-1.327 1.002-2.219 3.008-2.674l3.708-.845v-1.91c0-.602-.204-1.048-.613-1.336-.41-.288-1.187-.433-2.332-.433-1.144 0-2.184.134-3.12.402v-1.005c.936-.24 1.997-.361 3.184-.361l.002.001zm-2.607 8.202v.624c0 .616.18 1.069.538 1.356.358.29.965.433 1.816.433 1.22 0 2.263-.308 3.133-.925v-4.1l-3.309.743c-.818.2-1.386.443-1.703.723-.318.282-.477.664-.477 1.146h.002zm-4.038-5.467v8.684H80.56v-8.684c0-1.168-.715-1.751-2.155-1.751-.899 0-1.876.203-2.928.605v9.831H74.22V38.951a9.73 9.73 0 011.23-.235v.496c1.167-.375 2.219-.564 3.144-.564.925 0 1.697.235 2.307.704.61.47.916 1.126.916 1.97h-.002zm21.737 0v8.684h-1.256v-8.684c0-1.168-.715-1.751-2.155-1.751-.899 0-1.876.203-2.928.605v9.831h-1.256V38.951a9.73 9.73 0 011.23-.235v.496c1.167-.375 2.219-.564 3.144-.564.925 0 1.697.235 2.308.704.61.47.915 1.126.915 1.97h-.002zm3.382-.022c0-1.809 1.345-2.714 4.035-2.714.968 0 1.813.087 2.531.26v.925c-.753-.173-1.633-.26-2.644-.26-1.011 0-1.709.147-2.093.442-.385.295-.577.744-.577 1.347v6.112c0 .602.191 1.049.577 1.336.384.29 1.09.433 2.118.433 1.028 0 1.917-.1 2.668-.301v.944c-.836.189-1.696.282-2.581.282-2.69 0-4.035-.898-4.035-2.694V41.3h.001zm9.247 5.91v-5.63c0-.924.322-1.67.964-2.241.644-.57 1.625-.855 2.945-.855 1.321 0 2.302.286 2.945.855.643.57.965 1.317.965 2.242v3.357h-6.566v2.271c0 1.3 1.111 1.95 3.333 1.95.903 0 1.829-.114 2.782-.341v.985c-.852.202-1.78.301-2.782.301-3.058 0-4.586-.965-4.586-2.895zm1.253-3.177h5.314V41.58c0-1.461-.886-2.192-2.658-2.192-1.772 0-2.656.73-2.656 2.192v2.452zm-46.972-5.318v11.291H69.21V38.95a9.24 9.24 0 011.25-.235zm0-2.098H69.21v.905h1.25v-.905zm-41.594 2.098v11.291h-1.25V38.95a9.244 9.244 0 011.25-.235zm0-2.098h-1.25v.905h1.25v-.905zM12.73 38.715v11.291h-1.251V38.95a9.24 9.24 0 011.25-.235zm0-2.098h-1.251v.905h1.25v-.905z" fill="#2E2F36"/><path d="M17.25 10.512h11.12v4.98c0 6.957-5.695 12.605-12.71 12.605H0v-.479c0-9.441 7.729-17.106 17.25-17.106z" fill="#009D77"/><path d="M12.71-.04h15.66v.48c0 9.441-7.729 17.106-17.25 17.106H0v-4.98C0 5.609 5.695-.04 12.71-.04z" fill="#01A6FF"/></g><defs><clipPath id="clip0_4027_14540"><path fill="#fff" d="M0 0h124v53H0z"/></clipPath></defs></svg>