<svg width="40" height="40" fill="none" xmlns="http://www.w3.org/2000/svg"><path d="M10 0a2.507 2.507 0 00-2.5 2.5v35c0 1.375 1.125 2.5 2.5 2.5h25c1.375 0 2.5-1.125 2.5-2.5V10l-10-10H10z" fill="#E2E5E7"/><path d="M30 10h7.5l-10-10v7.5c0 1.375 1.125 2.5 2.5 2.5z" fill="#B0B7BD"/><path d="M37.5 17.5L30 10h7.5v7.5z" fill="#CAD1D8"/><path d="M32.5 32.5c0 .688-.563 1.25-1.25 1.25H3.75c-.688 0-1.25-.563-1.25-1.25V20c0-.688.563-1.25 1.25-1.25h27.5c.688 0 1.25.563 1.25 1.25v12.5z" fill="#F15642"/><path d="M7.948 23.682c0-.33.26-.69.679-.69h2.309c1.3 0 2.47.87 2.47 2.538 0 1.58-1.17 2.46-2.47 2.46H9.267v1.32c0 .44-.28.688-.64.688a.673.673 0 01-.679-.688v-5.628zm1.319.569v2.49h1.669c.67 0 1.2-.591 1.2-1.211 0-.7-.53-1.28-1.2-1.28H9.267zm6.096 5.747c-.33 0-.69-.18-.69-.619v-5.677c0-.359.36-.62.69-.62h2.289c4.567 0 4.467 6.916.09 6.916h-2.38zm.63-5.696v4.477h1.659c2.698 0 2.818-4.477 0-4.477h-1.66zm7.747.081v1.589h2.548c.36 0 .72.36.72.709 0 .33-.36.6-.72.6h-2.549v2.099c0 .35-.249.618-.599.618-.44 0-.708-.268-.708-.619v-5.677c0-.359.27-.62.708-.62h3.51c.44 0 .7.261.7.62 0 .32-.26.68-.7.68h-2.91v.001z" fill="#fff"/><path d="M31.25 33.75H7.5V35h23.75c.688 0 1.25-.563 1.25-1.25V32.5c0 .688-.563 1.25-1.25 1.25z" fill="#CAD1D8"/></svg>