<svg width="30" height="30" fill="none" xmlns="http://www.w3.org/2000/svg"><g clip-path="url(#clip0_4027_14913)"><path d="M21.91 21.885a1.12 1.12 0 001.501.08l.086-.076 6.123-6.094.001-.001c.437-.436.44-1.146.003-1.585l-.004-.004-6.123-6.094a1.122 1.122 0 00-1.502-.073l-.085.077a1.121 1.121 0 00-.073 1.501l.077.085 4.111 4.092.085.085H1.172a1.122 1.122 0 000 2.244h24.94l-.087.085-4.11 4.092a1.12 1.12 0 00-.082 1.5l.077.086z" fill="#01A6FF" stroke="#01A6FF" stroke-width=".1"/></g><defs><clipPath id="clip0_4027_14913"><path fill="#fff" transform="matrix(1 0 0 -1 0 30)" d="M0 0h30v30H0z"/></clipPath></defs></svg>