<svg width="30" height="30" fill="none" xmlns="http://www.w3.org/2000/svg"><g clip-path="url(#clip0_4027_14909)"><path d="M8.09 21.885a1.12 1.12 0 01-1.501.08l-.086-.076L.38 15.795l-.001-.001a1.123 1.123 0 01-.003-1.585l.004-.004 6.123-6.094a1.122 1.122 0 011.502-.073l.085.077c.41.412.433 1.061.073 1.501l-.077.085-4.111 4.092-.085.085h24.938a1.122 1.122 0 010 2.244H3.888l.087.085 4.11 4.092c.413.41.44 1.06.082 1.5l-.077.086z" fill="#01A6FF" stroke="#01A6FF" stroke-width=".1"/></g><defs><clipPath id="clip0_4027_14909"><path fill="#fff" transform="rotate(-180 15 15)" d="M0 0h30v30H0z"/></clipPath></defs></svg>